<?xml version="1.0" encoding="UTF-8"?>
<svg width="1230px" height="304px" viewBox="0 0 1230 304" version="1.1" xmlns="http://www.w3.org/2000/svg" xmlns:xlink="http://www.w3.org/1999/xlink">
    <!-- Generator: Sketch 42 (36781) - http://www.bohemiancoding.com/sketch -->
    <title>Group 20</title>
    <desc>Created with Sketch.</desc>
    <defs></defs>
    <g id="Page-1" stroke="none" stroke-width="1" fill="none" fill-rule="evenodd" stroke-linejoin="round">
        <g id="Landing-Page-v2-1680" transform="translate(-196.000000, -2662.500000)">
            <g id="Group-22" transform="translate(0.000000, -4.000000)">
                <g id="Group-35" transform="translate(0.000000, 1867.333333)">
                    <g id="Group-37" transform="translate(0.000000, 589.166667)">
                        <g id="Group-25" transform="translate(0.000000, 46.666667)">
                            <g id="Group-26">
                                <g id="Group-20" transform="translate(196.000000, 163.333333)">
                                    <g id="Group-17" transform="translate(576.333333, 56.000000)" stroke="#000000">
                                        <g id="Group" transform="translate(-0.000000, 0.000000)" stroke-linecap="round">
                                            <polygon id="Stroke-35" points="38.8888889 81.6666667 0 81.6666667 0 3.88888889 58.3333333 3.88888889 58.3333333 62.2222222"></polygon>
                                            <polyline id="Stroke-36" points="38.8888889 81.6666667 38.8888889 62.2222222 58.3333333 62.2222222"></polyline>
                                            <polyline id="Stroke-37" points="11.6666667 21.3888889 17.5 27.2222222 27.2222222 15.5555556"></polyline>
                                            <polyline id="Stroke-38" points="11.6666667 42.7777778 17.5 48.6111111 27.2222222 36.9444444"></polyline>
                                            <path d="M31.1111111,23.3333333 L46.6666667,23.3333333" id="Stroke-39"></path>
                                            <path d="M31.1111111,46.6666667 L46.6666667,46.6666667" id="Stroke-40"></path>
                                            <polygon id="Stroke-41" points="77.7777778 70 66.1111111 70 66.1111111 3.88888889 77.7777778 3.88888889"></polygon>
                                            <polyline id="Stroke-42" points="66.1111111 70 71.9444444 81.6666667 77.7777778 70"></polyline>
                                            <path d="M66.1111111,23.3333333 L77.7777778,23.3333333" id="Stroke-43"></path>
                                            <polyline id="Stroke-44" points="77.7777778 7.77777778 89.4444444 7.77777778 85.5555556 35 89.4444444 38.8888889"></polyline>
                                            <path d="M71.9444444,8.16666667 L71.9444444,0" id="Stroke-45"></path>
                                        </g>
                                        <g id="Group-Copy" transform="translate(1.166667, 110.833333)">
                                            <polygon id="Stroke-586" stroke-linecap="round" points="48.5434783 62.1376812 48.5434783 71.0144928 39.6666667 71.0144928 29.0144928 81.6666667 18.3623188 71.0144928 9.48550725 71.0144928 9.48550725 62.1376812 0.608695652 53.2608696 9.48550725 44.384058 9.48550725 35.5072464 18.3623188 35.5072464 29.0144928 24.8550725 39.6666667 35.5072464 48.5434783 35.5072464 48.5434783 44.384058 57.4202899 53.2608696"></polygon>
                                            <polyline id="Stroke-587" stroke-linecap="round" points="13.0362319 0 13.0362319 17.7536232 29.0144928 24.8550725 44.9927536 17.7536232 44.9927536 0"></polyline>
                                            <path d="M5.93478261,0 L52.0942029,0" id="Stroke-588" stroke-linecap="round"></path>
                                            <path d="M23.6884058,0 L23.6884058,22.192029" id="Stroke-589" stroke-linecap="round"></path>
                                            <path d="M34.3405797,0 L34.3405797,22.192029" id="Stroke-590" stroke-linecap="round"></path>
                                            <polygon id="Stroke-591" points="37.8913043 58.5869565 29.0144928 63.9130435 20.1376812 58.5869565 20.1376812 47.9347826 29.0144928 42.6086957 37.8913043 47.9347826"></polygon>
                                        </g>
                                    </g>
                                    <g id="Group-18" transform="translate(1143.333333, 57.166667)" stroke="#000000">
                                        <g id="Group" transform="translate(0.000000, 109.666667)">
                                            <polygon id="Stroke-51" points="25.9848485 37.1212121 44.5454545 81.6666667 7.42424242 81.6666667"></polygon>
                                            <polyline id="Stroke-52" points="36.8338939 63.1569167 57.5363939 14.8473712 85.377303 81.665553 44.5439697 81.665553"></polyline>
                                            <polyline id="Stroke-53" stroke-linecap="round" points="0 8.16666667 7.42424242 0 14.8484848 8.16666667 22.2727273 0 29.6969697 8.16666667 37.1212121 0 44.5454545 8.16666667"></polyline>
                                            <polyline id="Stroke-54" stroke-linecap="round" points="0 23.0151515 7.42424242 14.8484848 14.8484848 23.0151515 22.2727273 14.8484848 29.6969697 23.0151515"></polyline>
                                            <polyline id="Stroke-55" points="46.3996591 40.8314773 51.971553 48.9981439 57.5397348 40.8369181 63.1079167 48.9981439 68.4570833 41.1524855"></polyline>
                                        </g>
                                        <g id="Group" stroke-linecap="round">
                                            <path d="M58.5869565,69.8478261 L46.1594203,53.8695652" id="Stroke-472"></path>
                                            <polygon id="Stroke-473" points="46.1594203 53.8695652 40.8333333 0.608695652 35.5072464 53.8695652"></polygon>
                                            <polygon id="Stroke-474" points="51.4855072 30.7898551 53.2608696 13.0362319 78.115942 7.71014493 67.4637681 30.7898551"></polygon>
                                            <path d="M63.9130435,20.1376812 L51.4855072,30.7898551" id="Stroke-475"></path>
                                            <path d="M23.0797101,69.8478261 L35.5072464,53.8695652" id="Stroke-476"></path>
                                            <polyline id="Stroke-477" points="27.832 63.7380942 14.2043188 59.1967174 0.00142028986 76.9503406 81.668087 76.9503406 67.4651884 59.1967174 53.8339565 63.7380942"></polyline>
                                            <polygon id="Stroke-478" points="30.1811594 30.7898551 28.4057971 13.0362319 3.55072464 7.71014493 14.2028986 30.7898551"></polygon>
                                            <path d="M17.7536232,20.1376812 L30.1811594,30.7898551" id="Stroke-479"></path>
                                        </g>
                                    </g>
                                    <g id="Group-19" transform="translate(294.000000, 0.000000)" stroke="#000000">
                                        <g id="Group" transform="translate(8.166667, 110.833333)">
                                            <polygon id="Stroke-287" points="35.5072464 21.3043478 30.1811594 24.8550725 24.8550725 21.3043478 24.8550725 15.9782609 30.1811594 12.4275362 35.5072464 15.9782609"></polygon>
                                            <path d="M40.8333333,0 L40.8333333,8.16666667" id="Stroke-288" stroke-linecap="round"></path>
                                            <polygon id="Stroke-289" stroke-linecap="round" points="55.0362319 81.6666667 26.6304348 81.6666667 21.3043478 55.0362319 30.1811594 46.1594203 51.4855072 46.1594203 60.3623188 55.0362319"></polygon>
                                            <path d="M40.8333333,35.5072464 L40.8333333,46.1594203" id="Stroke-290" stroke-linecap="round"></path>
                                            <path d="M25.2105,74.5652174 L56.4568768,74.5652174" id="Stroke-291" stroke-linecap="round"></path>
                                            <polyline id="Stroke-292" stroke-linecap="round" points="7.10144928 55.0362319 8.87681159 65.6884058 22.5257971 61.1399275"></polyline>
                                            <polyline id="Stroke-293" stroke-linecap="round" points="0 40.8333333 0 47.9347826 7.10144928 55.0362319 14.2028986 47.9347826 14.2028986 40.8333333"></polyline>
                                            <polygon id="Stroke-294" stroke-linecap="round" points="55.0362319 35.5072464 71.0144928 19.5289855 55.0362319 3.55072464 26.6304348 3.55072464 10.6521739 19.5289855 26.6304348 35.5072464"></polygon>
                                            <polygon id="Stroke-295" points="46.1594203 21.3043478 51.4855072 24.8550725 56.8115942 21.3043478 56.8115942 15.9782609 51.4855072 12.4275362 46.1594203 15.9782609"></polygon>
                                            <polyline id="Stroke-296" stroke-linecap="round" points="74.5652174 55.0362319 72.7898551 65.6884058 59.1408696 61.1399275"></polyline>
                                            <polyline id="Stroke-297" stroke-linecap="round" points="81.6666667 40.8333333 81.6666667 47.9347826 74.5652174 55.0362319 67.4637681 47.9347826 67.4637681 40.8333333"></polyline>
                                        </g>
                                        <g id="Group-16" transform="translate(8.166667, 0.000000)" stroke-linecap="round">
                                            <polygon id="Stroke-655" points="17.7536232 40.8333333 17.7536232 33.7318841 23.0797101 28.4057971 30.1811594 28.4057971 35.5072464 33.7318841 35.5072464 40.8333333 30.1811594 46.1594203 23.0797101 46.1594203"></polygon>
                                            <polygon id="Stroke-656" points="46.1594203 40.8333333 46.1594203 33.7318841 51.4855072 28.4057971 58.5869565 28.4057971 63.9130435 33.7318841 63.9130435 40.8333333 58.5869565 46.1594203 51.4855072 46.1594203"></polygon>
                                            <path d="M35.5072464,35.5072464 L46.1594203,35.5072464" id="Stroke-657"></path>
                                            <polyline id="Stroke-658" points="12.4275362 56.8115942 28.4057971 64.9782609 40.8333333 56.8115942 53.2608696 64.9782609 69.2391304 56.8115942"></polyline>
                                            <path d="M37.2826087,71.0144928 L45.4492754,71.0144928" id="Stroke-659"></path>
                                            <polygon id="Stroke-660" points="71.0144928 67.4637681 40.8333333 81.6666667 10.6521739 67.4637681 10.6521739 14.2028986 40.8333333 0 71.0144928 14.2028986"></polygon>
                                            <polygon id="Stroke-661" points="0 53.2608696 10.6521739 60.3623188 10.6521739 39.057971 0 39.057971"></polygon>
                                            <polygon id="Stroke-662" points="71.0144928 60.3623188 81.6666667 53.2608696 81.6666667 39.057971 71.0144928 39.057971"></polygon>
                                            <polyline id="Stroke-663" points="27.8110507 6.5067029 40.8351087 19.5307609 53.8520652 6.51025362"></polyline>
                                        </g>
                                        <g id="Group" transform="translate(0.000000, 221.666667)">
                                            <polygon id="Stroke-466" points="23.6403509 81.6666667 0 40.8333333 23.6403509 0 75.2192982 0 98.8596491 40.8333333 75.2192982 81.6666667"></polygon>
                                            <polygon id="Stroke-467" points="98.8596491 40.8333333 66.622807 21.4912281 23.6403509 0 19.3421053 47.2807018 23.6403509 81.6666667 68.7719298 73.0701754"></polygon>
                                            <polygon id="Stroke-468" points="66.622807 21.4912281 19.3421053 47.2807018 68.7719298 73.0701754"></polygon>
                                            <path d="M76.9385965,81.6666667 L68.7719298,73.0701754" id="Stroke-469"></path>
                                            <path d="M0,40.8333333 L19.3421053,49" id="Stroke-470"></path>
                                            <path d="M75.2192982,0 L66.622807,21.4912281" id="Stroke-471"></path>
                                        </g>
                                    </g>
                                    <g id="Group" transform="translate(858.666667, 110.833333)" stroke="#000000">
                                        <polygon id="Stroke-115" points="81.6666667 49.7101449 72.7898551 49.7101449 72.7898551 63.9130435 58.5869565 49.7101449 17.7536232 49.7101449 17.7536232 0 81.6666667 0"></polygon>
                                        <polyline id="Stroke-116" stroke-linecap="round" points="37.2826087 30.1811594 42.6086957 38.3478261 56.8115942 38.3478261 62.1376812 30.1811594"></polyline>
                                        <path d="M42.6086957,15.9782609 L42.6086957,24.1449275" id="Stroke-117" stroke-linecap="round"></path>
                                        <path d="M56.8115942,15.9782609 L56.8115942,24.1449275" id="Stroke-118" stroke-linecap="round"></path>
                                        <polyline id="Stroke-119" points="53.2608696 49.7101449 53.2608696 67.4637681 19.5289855 67.4637681 5.32608696 81.6666667 5.32608696 67.4637681 0 67.4637681 0 24.8550725 17.7536232 24.8550725"></polyline>
                                    </g>
                                    <g id="Group-15" transform="translate(0.000000, 56.000000)" stroke="#000000">
                                        <g id="Stroke-268-+-Stroke-269-+-Stroke-270" transform="translate(0.000000, 110.833333)" stroke-linecap="round">
                                            <polygon id="Stroke-268" points="0 67.4637681 28.4057971 81.6666667 56.8115942 67.4637681 28.4057971 53.2608696"></polygon>
                                            <path d="M28.4057971,67.4637681 L28.4057971,0" id="Stroke-269"></path>
                                            <polyline id="Stroke-270" points="28.4057971 7.10144928 71.0144928 7.10144928 56.8115942 21.3043478 71.0144928 35.5072464 28.4057971 35.5072464"></polyline>
                                        </g>
                                        <g id="Group" transform="translate(3.500000, 0.000000)">
                                            <polygon id="Stroke-1" points="67.4637681 62.1376812 33.7318841 81.6666667 0 62.1376812 0 19.5289855 33.7318841 0 67.4637681 19.5289855"></polygon>
                                            <polyline id="Stroke-2" points="61.0966087 65.8236884 40.8326232 58.5873116 40.8326232 51.4858623 53.2601594 44.384413 53.2601594 26.6307899 33.7311739 15.9786159 14.2021884 26.6307899 14.2021884 44.384413 26.6297246 51.4858623 26.6297246 58.5873116 6.94450725 66.1574565"></polyline>
                                            <polyline id="Stroke-3" stroke-linecap="round" points="26.6304348 40.8333333 33.7318841 49 40.8333333 40.8333333"></polyline>
                                            <path d="M53.2608696,34.7971014 L14.2028986,26.6304348" id="Stroke-4" stroke-linecap="round"></path>
                                        </g>
                                    </g>
                                    <polygon id="Stroke-614" stroke="#0076A5" transform="translate(1041.250000, 151.134058) rotate(90.000000) translate(-1041.250000, -151.134058) " points="1065.21739 164.82971 1041.25 177.384058 1017.28261 164.82971 1017.28261 137.438406 1041.25 124.884058 1065.21739 137.438406"></polygon>
                                    <polyline id="Stroke-615" stroke="#0076A5" stroke-linecap="round" transform="translate(1049.239130, 152.275362) rotate(90.000000) translate(-1049.239130, -152.275362) " points="1058.36957 156.84058 1049.23913 147.710145 1040.1087 156.84058"></polyline>
                                    <path d="M1040.1087,140.862319 L1040.1087,165.971014" id="Stroke-616" stroke="#0076A5" stroke-linecap="round" transform="translate(1041.250000, 153.416667) rotate(90.000000) translate(-1041.250000, -153.416667) "></path>
                                    <polygon id="Stroke-614" stroke="#0076A5" transform="translate(762.416667, 151.134058) rotate(90.000000) translate(-762.416667, -151.134058) " points="786.384058 164.82971 762.416667 177.384058 738.449275 164.82971 738.449275 137.438406 762.416667 124.884058 786.384058 137.438406"></polygon>
                                    <polyline id="Stroke-615" stroke="#0076A5" stroke-linecap="round" transform="translate(770.405797, 152.275362) rotate(90.000000) translate(-770.405797, -152.275362) " points="779.536232 156.84058 770.405797 147.710145 761.275362 156.84058"></polyline>
                                    <path d="M761.275362,140.862319 L761.275362,165.971014" id="Stroke-616" stroke="#0076A5" stroke-linecap="round" transform="translate(762.416667, 153.416667) rotate(90.000000) translate(-762.416667, -153.416667) "></path>
                                    <polygon id="Stroke-614" stroke="#0076A5" transform="translate(484.750000, 151.134058) rotate(90.000000) translate(-484.750000, -151.134058) " points="508.717391 164.82971 484.75 177.384058 460.782609 164.82971 460.782609 137.438406 484.75 124.884058 508.717391 137.438406"></polygon>
                                    <polyline id="Stroke-615" stroke="#0076A5" stroke-linecap="round" transform="translate(492.739130, 152.275362) rotate(90.000000) translate(-492.739130, -152.275362) " points="501.869565 156.84058 492.73913 147.710145 483.608696 156.84058"></polyline>
                                    <path d="M483.608696,140.862319 L483.608696,165.971014" id="Stroke-616" stroke="#0076A5" stroke-linecap="round" transform="translate(484.750000, 153.416667) rotate(90.000000) translate(-484.750000, -153.416667) "></path>
                                    <polygon id="Stroke-614" stroke="#0076A5" transform="translate(182.583333, 151.134058) rotate(90.000000) translate(-182.583333, -151.134058) " points="206.550725 164.82971 182.583333 177.384058 158.615942 164.82971 158.615942 137.438406 182.583333 124.884058 206.550725 137.438406"></polygon>
                                    <polyline id="Stroke-615" stroke="#0076A5" stroke-linecap="round" transform="translate(190.572464, 152.275362) rotate(90.000000) translate(-190.572464, -152.275362) " points="199.702899 156.84058 190.572464 147.710145 181.442029 156.84058"></polyline>
                                    <path d="M181.442029,140.862319 L181.442029,165.971014" id="Stroke-616" stroke="#0076A5" stroke-linecap="round" transform="translate(182.583333, 153.416667) rotate(90.000000) translate(-182.583333, -153.416667) "></path>
                                </g>
                            </g>
                        </g>
                    </g>
                </g>
            </g>
        </g>
    </g>
</svg>