<?xml version="1.0" encoding="UTF-8"?>
<svg width="41px" height="35px" viewBox="0 0 41 35" version="1.1" xmlns="http://www.w3.org/2000/svg" xmlns:xlink="http://www.w3.org/1999/xlink">
    <!-- Generator: Sketch 42 (36781) - http://www.bohemiancoding.com/sketch -->
    <title>Group 16</title>
    <desc>Created with Sketch.</desc>
    <defs></defs>
    <g id="Page-1" stroke="none" stroke-width="1" fill="none" fill-rule="evenodd" stroke-linecap="round" stroke-linejoin="round">
        <g id="Landing-Page-v2" transform="translate(-646.333333, -1916.000000)" stroke="#000000">
            <g id="Group-59" transform="translate(0.000000, 1713.000000)">
                <g id="Group-35">
                    <g id="Group-16" transform="translate(646.333333, 203.000000)">
                        <polygon id="Stroke-655" points="8.87681159 17.5 8.87681159 14.4565217 11.5398551 12.173913 15.0905797 12.173913 17.7536232 14.4565217 17.7536232 17.5 15.0905797 19.7826087 11.5398551 19.7826087"></polygon>
                        <polygon id="Stroke-656" points="23.0797101 17.5 23.0797101 14.4565217 25.7427536 12.173913 29.2934783 12.173913 31.9565217 14.4565217 31.9565217 17.5 29.2934783 19.7826087 25.7427536 19.7826087"></polygon>
                        <path d="M17.7536232,15.2173913 L23.0797101,15.2173913" id="Stroke-657"></path>
                        <polyline id="Stroke-658" points="6.21376812 24.3478261 14.2028986 27.8478261 20.4166667 24.3478261 26.6304348 27.8478261 34.6195652 24.3478261"></polyline>
                        <path d="M18.6413043,30.4347826 L22.7246377,30.4347826" id="Stroke-659"></path>
                        <polygon id="Stroke-660" points="35.5072464 28.9130435 20.4166667 35 5.32608696 28.9130435 5.32608696 6.08695652 20.4166667 0 35.5072464 6.08695652"></polygon>
                        <polygon id="Stroke-661" points="0 22.826087 5.32608696 25.8695652 5.32608696 16.7391304 0 16.7391304"></polygon>
                        <polygon id="Stroke-662" points="35.5072464 25.8695652 40.8333333 22.826087 40.8333333 16.7391304 35.5072464 16.7391304"></polygon>
                        <polyline id="Stroke-663" points="13.9055254 2.78858696 20.4175543 8.37032609 26.9260326 2.7901087"></polyline>
                    </g>
                </g>
            </g>
        </g>
    </g>
</svg>