<?xml version="1.0" encoding="UTF-8"?>
<svg width="226px" height="40px" viewBox="0 0 226 40" version="1.1" xmlns="http://www.w3.org/2000/svg" xmlns:xlink="http://www.w3.org/1999/xlink">
    <!-- Generator: Sketch 42 (36781) - http://www.bohemiancoding.com/sketch -->
    <title>Group 56</title>
    <desc>Created with Sketch.</desc>
    <defs></defs>
    <g id="Page-1" stroke="none" stroke-width="1" fill="none" fill-rule="evenodd">
        <g id="Landing-Page-v2" transform="translate(-135.000000, -40.000000)">
            <g id="Group-56" transform="translate(135.000000, 40.000000)">
                <path d="M71,25.6410256 C71,25.7435897 71.0681631,25.8119658 71.1704078,25.8119658 L75.3113177,25.8119658 C77.3050891,25.8119658 78.63427,24.9230769 79.179575,23.2307692 C79.3670236,22.6495726 79.4692683,22.017094 79.4692683,20 C79.4692683,17.982906 79.3670236,17.3504274 79.179575,16.7692308 C78.63427,15.0769231 77.3050891,14.1880342 75.3113177,14.1880342 L71.1704078,14.1880342 C71.0681631,14.1880342 71,14.2564103 71,14.3589744 L71,25.6410256 Z M73.0108122,23.8974359 L73.0108122,16.1025641 C73.0108122,16.034188 73.0448938,16 73.1130569,16 L74.8341758,16 C76.1122344,16 76.8961103,16.4273504 77.236926,17.4700855 C77.3562114,17.7948718 77.4414153,18.3076923 77.4414153,20 C77.4414153,21.6752137 77.3562114,22.2051282 77.236926,22.5299145 C76.8961103,23.5726496 76.1122344,24 74.8341758,24 L73.1130569,24 C73.0448938,24 73.0108122,23.965812 73.0108122,23.8974359 L73.0108122,23.8974359 Z M82.867687,25.6410256 C82.867687,25.7435897 82.9358501,25.8119658 83.0380948,25.8119658 L84.7080914,25.8119658 C84.810336,25.8119658 84.8784992,25.7435897 84.8784992,25.6410256 L84.8784992,14.3589744 C84.8784992,14.2564103 84.810336,14.1880342 84.7080914,14.1880342 L83.0380948,14.1880342 C82.9358501,14.1880342 82.867687,14.2564103 82.867687,14.3589744 L82.867687,25.6410256 Z M92.7586433,26 C94.7524147,26 96.2860851,24.957265 96.8484308,23.1452991 C97.0358794,22.5641026 97.1210833,21.5555556 97.1210833,20.5982906 L97.1210833,19.5897436 C97.1210833,19.4871795 97.0529202,19.4188034 96.9506755,19.4188034 L93.1164997,19.4188034 C93.0142551,19.4188034 92.9460919,19.4871795 92.9460919,19.5897436 L92.9460919,20.957265 C92.9460919,21.0598291 93.0142551,21.1282051 93.1164997,21.1282051 L95.0250672,21.1282051 C95.0932304,21.1282051 95.1273119,21.1623932 95.1273119,21.2307692 C95.1273119,21.8974359 95.0591488,22.3760684 94.9398633,22.7350427 C94.6331293,23.6752137 93.7640494,24.1880342 92.7416026,24.1880342 C91.5657886,24.1880342 90.8841574,23.6068376 90.5603825,22.6666667 C90.4240563,22.2393162 90.3558932,21.6410256 90.3558932,20 C90.3558932,18.3418803 90.4240563,17.7606838 90.5603825,17.3333333 C90.8841574,16.3931624 91.5657886,15.8119658 92.7416026,15.8119658 C93.8662941,15.8119658 94.5649661,16.3247863 95.0761896,17.2478632 C95.1102712,17.3162393 95.1954751,17.3675214 95.2977197,17.3333333 L96.7291454,16.7008547 C96.8143493,16.6495726 96.8313901,16.5470085 96.7973085,16.4615385 C96.3201666,15.1623932 94.9228226,14 92.7586433,14 C90.7137496,14 89.2141608,14.957265 88.6177335,16.8034188 C88.3791625,17.5213675 88.3109994,18.1709402 88.3109994,20 C88.3109994,21.8290598 88.3791625,22.4786325 88.6177335,23.1965812 C89.2141608,25.042735 90.7137496,26 92.7586433,26 Z M100.553584,25.6410256 C100.553584,25.7435897 100.621747,25.8119658 100.723991,25.8119658 L102.393988,25.8119658 C102.496233,25.8119658 102.564396,25.7435897 102.564396,25.6410256 L102.564396,14.3589744 C102.564396,14.2564103 102.496233,14.1880342 102.393988,14.1880342 L100.723991,14.1880342 C100.621747,14.1880342 100.553584,14.2564103 100.553584,14.3589744 L100.553584,25.6410256 Z M110.580866,25.8119658 C110.683111,25.8119658 110.751274,25.7435897 110.751274,25.6410256 L110.751274,16.1025641 C110.751274,16.034188 110.785356,16 110.853519,16 L113.886778,16 C113.989022,16 114.057186,15.9316239 114.057186,15.8290598 L114.057186,14.3589744 C114.057186,14.2564103 113.989022,14.1880342 113.886778,14.1880342 L105.604958,14.1880342 C105.502713,14.1880342 105.43455,14.2564103 105.43455,14.3589744 L105.43455,15.8290598 C105.43455,15.9316239 105.502713,16 105.604958,16 L108.638217,16 C108.70638,16 108.740462,16.034188 108.740462,16.1025641 L108.740462,25.6410256 C108.740462,25.7435897 108.808625,25.8119658 108.91087,25.8119658 L110.580866,25.8119658 Z M114.933569,25.6410256 C114.899487,25.7435897 114.933569,25.8119658 115.052854,25.8119658 L116.70581,25.8119658 C116.825095,25.8119658 116.893258,25.7606838 116.92734,25.6410256 L117.694175,23.3846154 L122.056615,23.3846154 L122.82345,25.6410256 C122.857532,25.7606838 122.925695,25.8119658 123.044981,25.8119658 L124.714977,25.8119658 C124.834263,25.8119658 124.868344,25.7435897 124.834263,25.6410256 L120.914883,14.3589744 C120.880801,14.2564103 120.812638,14.1880342 120.693353,14.1880342 L119.125601,14.1880342 C119.006315,14.1880342 118.938152,14.2564103 118.904071,14.3589744 L114.933569,25.6410256 Z M118.307643,21.5897436 L119.858354,17.0769231 L119.909477,17.0769231 L121.443147,21.5897436 L118.307643,21.5897436 Z M127.636254,25.6410256 C127.636254,25.7435897 127.704417,25.8119658 127.806662,25.8119658 L135.066035,25.8119658 C135.168279,25.8119658 135.236442,25.7435897 135.236442,25.6410256 L135.236442,24.1709402 C135.236442,24.0683761 135.168279,24 135.066035,24 L129.749311,24 C129.681148,24 129.647066,23.965812 129.647066,23.8974359 L129.647066,14.3589744 C129.647066,14.2564103 129.578903,14.1880342 129.476658,14.1880342 L127.806662,14.1880342 C127.704417,14.1880342 127.636254,14.2564103 127.636254,14.3589744 L127.636254,25.6410256 Z M139.981083,25.8119658 C140.083327,25.8119658 140.151491,25.7435897 140.151491,25.6410256 L140.151491,21.5213675 C140.151491,21.4529915 140.185572,21.4188034 140.253735,21.4188034 L142.656485,21.4188034 C144.905869,21.4188034 146.47362,19.965812 146.47362,17.7948718 C146.47362,15.6410256 144.905869,14.1880342 142.656485,14.1880342 L138.311086,14.1880342 C138.208841,14.1880342 138.140678,14.2564103 138.140678,14.3589744 L138.140678,25.6410256 C138.140678,25.7435897 138.208841,25.8119658 138.311086,25.8119658 L139.981083,25.8119658 Z M142.5372,19.5897436 L140.253735,19.5897436 C140.185572,19.5897436 140.151491,19.5555556 140.151491,19.4871795 L140.151491,16.1025641 C140.151491,16.034188 140.185572,16 140.253735,16 L142.5372,16 C143.730055,16 144.462808,16.7350427 144.462808,17.7948718 C144.462808,18.8717949 143.730055,19.5897436 142.5372,19.5897436 L142.5372,19.5897436 Z M147.435207,25.6410256 C147.401126,25.7435897 147.435207,25.8119658 147.554493,25.8119658 L149.207449,25.8119658 C149.326734,25.8119658 149.394897,25.7606838 149.428979,25.6410256 L150.195814,23.3846154 L154.558254,23.3846154 L155.325089,25.6410256 C155.359171,25.7606838 155.427334,25.8119658 155.546619,25.8119658 L157.216616,25.8119658 C157.335901,25.8119658 157.369983,25.7435897 157.335901,25.6410256 L153.416522,14.3589744 C153.38244,14.2564103 153.314277,14.1880342 153.194991,14.1880342 L151.62724,14.1880342 C151.507954,14.1880342 151.439791,14.2564103 151.405709,14.3589744 L147.435207,25.6410256 Z M150.809282,21.5897436 L152.359993,17.0769231 L152.411116,17.0769231 L153.944786,21.5897436 L150.809282,21.5897436 Z M168.607161,25.8119658 C168.726446,25.8119658 168.79461,25.7094017 168.726446,25.5897436 L166.289615,20.8547009 C167.618796,20.3589744 168.487875,19.1794872 168.487875,17.6581197 C168.487875,15.6068376 166.920124,14.1880342 164.790026,14.1880342 L160.3083,14.1880342 C160.206056,14.1880342 160.137893,14.2564103 160.137893,14.3589744 L160.137893,25.6410256 C160.137893,25.7435897 160.206056,25.8119658 160.3083,25.8119658 L161.978297,25.8119658 C162.080542,25.8119658 162.148705,25.7435897 162.148705,25.6410256 L162.148705,21.2136752 C162.148705,21.1452991 162.182786,21.1111111 162.25095,21.1111111 L164.244721,21.1111111 L166.460022,25.6410256 C166.511145,25.7606838 166.579308,25.8119658 166.715634,25.8119658 L168.607161,25.8119658 Z M164.721863,19.2991453 L162.25095,19.2991453 C162.182786,19.2991453 162.148705,19.2649573 162.148705,19.1965812 L162.148705,16.1025641 C162.148705,16.034188 162.182786,16 162.25095,16 L164.721863,16 C165.778391,16 166.494104,16.6495726 166.494104,17.6581197 C166.494104,18.6495726 165.778391,19.2991453 164.721863,19.2991453 L164.721863,19.2991453 Z M176.095367,25.8119658 C176.197612,25.8119658 176.265775,25.7435897 176.265775,25.6410256 L176.265775,16.1025641 C176.265775,16.034188 176.299856,16 176.36802,16 L179.401279,16 C179.503523,16 179.571687,15.9316239 179.571687,15.8290598 L179.571687,14.3589744 C179.571687,14.2564103 179.503523,14.1880342 179.401279,14.1880342 L171.119459,14.1880342 C171.017214,14.1880342 170.949051,14.2564103 170.949051,14.3589744 L170.949051,15.8290598 C170.949051,15.9316239 171.017214,16 171.119459,16 L174.152718,16 C174.220881,16 174.254963,16.034188 174.254963,16.1025641 L174.254963,25.6410256 C174.254963,25.7435897 174.323126,25.8119658 174.425371,25.8119658 L176.095367,25.8119658 Z M182.441841,25.6410256 C182.441841,25.7435897 182.510004,25.8119658 182.612249,25.8119658 L184.094797,25.8119658 C184.197041,25.8119658 184.265205,25.7435897 184.265205,25.6410256 L184.265205,17.6410256 L184.333368,17.6410256 L189.070705,25.6410256 C189.138868,25.7606838 189.224072,25.8119658 189.360398,25.8119658 L190.911109,25.8119658 C191.013354,25.8119658 191.081517,25.7435897 191.081517,25.6410256 L191.081517,14.3589744 C191.081517,14.2564103 191.013354,14.1880342 190.911109,14.1880342 L189.428561,14.1880342 C189.326317,14.1880342 189.258153,14.2564103 189.258153,14.3589744 L189.258153,22.3760684 L189.18999,22.3760684 L184.469694,14.3589744 C184.401531,14.2393162 184.316327,14.1880342 184.180001,14.1880342 L182.612249,14.1880342 C182.510004,14.1880342 182.441841,14.2564103 182.441841,14.3589744 L182.441841,25.6410256 Z M194.854833,25.6410256 C194.854833,25.7435897 194.922996,25.8119658 195.025241,25.8119658 L202.284614,25.8119658 C202.386858,25.8119658 202.455021,25.7435897 202.455021,25.6410256 L202.455021,24.1709402 C202.455021,24.0683761 202.386858,24 202.284614,24 L196.96789,24 C196.899727,24 196.865645,23.965812 196.865645,23.8974359 L196.865645,20.957265 C196.865645,20.8888889 196.899727,20.8547009 196.96789,20.8547009 L201.449615,20.8547009 C201.55186,20.8547009 201.620023,20.7863248 201.620023,20.6837607 L201.620023,19.2136752 C201.620023,19.1111111 201.55186,19.042735 201.449615,19.042735 L196.96789,19.042735 C196.899727,19.042735 196.865645,19.008547 196.865645,18.9401709 L196.865645,16.1025641 C196.865645,16.034188 196.899727,16 196.96789,16 L202.284614,16 C202.386858,16 202.455021,15.9316239 202.455021,15.8290598 L202.455021,14.3589744 C202.455021,14.2564103 202.386858,14.1880342 202.284614,14.1880342 L195.025241,14.1880342 C194.922996,14.1880342 194.854833,14.2564103 194.854833,14.3589744 L194.854833,25.6410256 Z M214.254545,25.8119658 C214.373831,25.8119658 214.441994,25.7094017 214.373831,25.5897436 L211.936999,20.8547009 C213.26618,20.3589744 214.13526,19.1794872 214.13526,17.6581197 C214.13526,15.6068376 212.567508,14.1880342 210.43741,14.1880342 L205.955685,14.1880342 C205.85344,14.1880342 205.785277,14.2564103 205.785277,14.3589744 L205.785277,25.6410256 C205.785277,25.7435897 205.85344,25.8119658 205.955685,25.8119658 L207.625681,25.8119658 C207.727926,25.8119658 207.796089,25.7435897 207.796089,25.6410256 L207.796089,21.2136752 C207.796089,21.1452991 207.830171,21.1111111 207.898334,21.1111111 L209.892105,21.1111111 L212.107407,25.6410256 C212.158529,25.7606838 212.226692,25.8119658 212.363019,25.8119658 L214.254545,25.8119658 Z M210.369247,19.2991453 L207.898334,19.2991453 C207.830171,19.2991453 207.796089,19.2649573 207.796089,19.1965812 L207.796089,16.1025641 C207.796089,16.034188 207.830171,16 207.898334,16 L210.369247,16 C211.425776,16 212.141488,16.6495726 212.141488,17.6581197 C212.141488,18.6495726 211.425776,19.2991453 210.369247,19.2991453 L210.369247,19.2991453 Z M221.197446,26 C224.077338,26 225.559886,24.4615385 225.559886,22.3931624 C225.559886,20.3931624 224.33295,19.3333333 222.100608,19.025641 L221.48714,18.9401709 C219.919388,18.7179487 219.357042,18.1709402 219.357042,17.3675214 C219.357042,16.4615385 220.004592,15.8119658 221.180406,15.8119658 C222.15173,15.8119658 223.02081,16.1025641 223.958053,16.7179487 C224.043257,16.7692308 224.128461,16.7521368 224.196624,16.6666667 L225.014581,15.4017094 C225.082745,15.2991453 225.065704,15.2307692 224.9805,15.1623932 C224.060298,14.4615385 222.679994,14 221.231528,14 C218.845819,14 217.312148,15.4017094 217.312148,17.5042735 C217.312148,19.4358974 218.573166,20.5128205 220.805508,20.8205128 L221.418977,20.9059829 C223.02081,21.1282051 223.532033,21.6752137 223.532033,22.5128205 C223.532033,23.4871795 222.731117,24.1880342 221.350813,24.1880342 C220.055714,24.1880342 218.948063,23.5555556 218.198269,22.957265 C218.130106,22.8888889 218.027861,22.8888889 217.959698,22.974359 L216.90317,24.2051282 C216.835006,24.2905983 216.869088,24.3931624 216.937251,24.4615385 C217.840413,25.3162393 219.493368,26 221.197446,26 L221.197446,26 Z" id="DIGITALPARTNERS.IO-Copy-2" fill="#000000"></path>
                <g id="Group-2-Copy-35" fill="">
                    <g id="Group">
                        <g id="Group-3">
                            <path d="M39.0569183,19.8283625 C39.0569183,8.92197612 30.9646183,0.120516617 19.4142491,0.0010686507 C7.86387999,-0.118379316 0.243017879,9.79580191 0.00486593778,19.5905352 C-0.233286003,29.3852684 8.30011596,39.2576914 19.0668771,39.2576914 C24.4154399,39.4188976 28.3449469,37.3882822 29.4166306,36.5521464 C18.9379452,29.6241644 19.5284592,19.8283625 19.5284592,19.8283625 L39.0569183,19.8283625 Z" id="Oval-Copy-3" transform="translate(19.528459, 19.633380) scale(-1, -1) rotate(-180.000000) translate(-19.528459, -19.633380) "></path>
                            <path d="M58.8235294,19.7932639 C58.8235294,8.88687753 49.2974518,-5.68434189e-14 38.9378423,-5.68434189e-14 C28.5782329,-5.68434189e-14 19.5284592,8.72192506 19.5284592,19.6283114 C19.5284592,25.5340534 22.2169096,30.8265474 26.2530332,34.442476 C29.6705917,37.5042375 34.0543958,39.3639462 38.5904704,39.3760708 C38.7244868,39.3496271 44.296261,39.7761729 48.9402239,36.6705258 C38.6996904,30.9019248 39.2950703,19.5543679 39.2950703,19.5543679 L58.8235294,19.7932639 Z" id="Oval-Copy-2" transform="translate(39.175994, 19.691365) rotate(-180.000000) translate(-39.175994, -19.691365) "></path>
                        </g>
                    </g>
                </g>
            </g>
        </g>
    </g>
</svg>