<?xml version="1.0" encoding="UTF-8"?>
<svg width="29px" height="35px" viewBox="0 0 29 35" version="1.1" xmlns="http://www.w3.org/2000/svg" xmlns:xlink="http://www.w3.org/1999/xlink">
    <!-- Generator: Sketch 42 (36781) - http://www.bohemiancoding.com/sketch -->
    <title>Group Copy</title>
    <desc>Created with Sketch.</desc>
    <defs></defs>
    <g id="Page-1" stroke="none" stroke-width="1" fill="none" fill-rule="evenodd" stroke-linejoin="round">
        <g id="Landing-Page-v2" transform="translate(-1001.000000, -1918.000000)" stroke="#000000">
            <g id="Group-59" transform="translate(0.000000, 1713.000000)">
                <g id="Group-35">
                    <g id="Group-Copy" transform="translate(1001.000000, 205.000000)">
                        <polygon id="Stroke-586" stroke-linecap="round" points="24.2717391 26.6304348 24.2717391 30.4347826 19.8333333 30.4347826 14.5072464 35 9.18115942 30.4347826 4.74275362 30.4347826 4.74275362 26.6304348 0.304347826 22.826087 4.74275362 19.0217391 4.74275362 15.2173913 9.18115942 15.2173913 14.5072464 10.6521739 19.8333333 15.2173913 24.2717391 15.2173913 24.2717391 19.0217391 28.7101449 22.826087"></polygon>
                        <polyline id="Stroke-587" stroke-linecap="round" points="6.51811594 0 6.51811594 7.60869565 14.5072464 10.6521739 22.4963768 7.60869565 22.4963768 0"></polyline>
                        <path d="M2.9673913,0 L26.0471014,0" id="Stroke-588" stroke-linecap="round"></path>
                        <path d="M11.8442029,0 L11.8442029,9.51086957" id="Stroke-589" stroke-linecap="round"></path>
                        <path d="M17.1702899,0 L17.1702899,9.51086957" id="Stroke-590" stroke-linecap="round"></path>
                        <polygon id="Stroke-591" points="18.9456522 25.1086957 14.5072464 27.3913043 10.0688406 25.1086957 10.0688406 20.5434783 14.5072464 18.2608696 18.9456522 20.5434783"></polygon>
                    </g>
                </g>
            </g>
        </g>
    </g>
</svg>