<?xml version="1.0" encoding="UTF-8"?>
<svg width="264px" height="40px" viewBox="0 0 264 40" version="1.1" xmlns="http://www.w3.org/2000/svg" xmlns:xlink="http://www.w3.org/1999/xlink">
    <!-- Generator: Sketch 42 (36781) - http://www.bohemiancoding.com/sketch -->
    <title>Group 56</title>
    <desc>Created with Sketch.</desc>
    <defs></defs>
    <g id="Page-1" stroke="none" stroke-width="1" fill="none" fill-rule="evenodd">
        <g id="Landing-Page-v2" transform="translate(-157.500000, -5230.000000)">
            <g id="Group-60" transform="translate(0.000000, 4919.000000)">
                <g id="Group-43">
                    <g id="Group-42">
                        <g id="Group-38" transform="translate(0.000000, 261.000000)">
                            <g id="Group-57" transform="translate(157.500000, 50.000000)">
                                <g id="Group-56">
                                    <path d="M82.8333333,25.6410256 C82.8333333,25.7435897 82.912857,25.8119658 83.0321424,25.8119658 L87.8632039,25.8119658 C90.1892706,25.8119658 91.7399817,24.9230769 92.3761709,23.2307692 C92.5948609,22.6495726 92.7141464,22.017094 92.7141464,20 C92.7141464,17.982906 92.5948609,17.3504274 92.3761709,16.7692308 C91.7399817,15.0769231 90.1892706,14.1880342 87.8632039,14.1880342 L83.0321424,14.1880342 C82.912857,14.1880342 82.8333333,14.2564103 82.8333333,14.3589744 L82.8333333,25.6410256 Z M85.1792809,23.8974359 L85.1792809,16.1025641 C85.1792809,16.034188 85.2190427,16 85.2985664,16 L87.3065384,16 C88.7976068,16 89.7121287,16.4273504 90.1097469,17.4700855 C90.2489133,17.7948718 90.3483179,18.3076923 90.3483179,20 C90.3483179,21.6752137 90.2489133,22.2051282 90.1097469,22.5299145 C89.7121287,23.5726496 88.7976068,24 87.3065384,24 L85.2985664,24 C85.2190427,24 85.1792809,23.965812 85.1792809,23.8974359 L85.1792809,23.8974359 Z M96.6789681,25.6410256 C96.6789681,25.7435897 96.7584918,25.8119658 96.8777773,25.8119658 L98.8261066,25.8119658 C98.9453921,25.8119658 99.0249157,25.7435897 99.0249157,25.6410256 L99.0249157,14.3589744 C99.0249157,14.2564103 98.9453921,14.1880342 98.8261066,14.1880342 L96.8777773,14.1880342 C96.7584918,14.1880342 96.6789681,14.2564103 96.6789681,14.3589744 L96.6789681,25.6410256 Z M108.218417,26 C110.544484,26 112.333766,24.957265 112.989836,23.1452991 C113.208526,22.5641026 113.307931,21.5555556 113.307931,20.5982906 L113.307931,19.5897436 C113.307931,19.4871795 113.228407,19.4188034 113.109121,19.4188034 L108.635916,19.4188034 C108.516631,19.4188034 108.437107,19.4871795 108.437107,19.5897436 L108.437107,20.957265 C108.437107,21.0598291 108.516631,21.1282051 108.635916,21.1282051 L110.862578,21.1282051 C110.942102,21.1282051 110.981864,21.1623932 110.981864,21.2307692 C110.981864,21.8974359 110.90234,22.3760684 110.763174,22.7350427 C110.405317,23.6752137 109.391391,24.1880342 108.198536,24.1880342 C106.826753,24.1880342 106.031517,23.6068376 105.65378,22.6666667 C105.494732,22.2393162 105.415209,21.6410256 105.415209,20 C105.415209,18.3418803 105.494732,17.7606838 105.65378,17.3333333 C106.031517,16.3931624 106.826753,15.8119658 108.198536,15.8119658 C109.510676,15.8119658 110.325794,16.3247863 110.922221,17.2478632 C110.961983,17.3162393 111.061388,17.3675214 111.180673,17.3333333 L112.85067,16.7008547 C112.950074,16.6495726 112.969955,16.5470085 112.930193,16.4615385 C112.373528,15.1623932 110.743293,14 108.218417,14 C105.832708,14 104.083188,14.957265 103.387356,16.8034188 C103.109023,17.5213675 103.029499,18.1709402 103.029499,20 C103.029499,21.8290598 103.109023,22.4786325 103.387356,23.1965812 C104.083188,25.042735 105.832708,26 108.218417,26 Z M117.312514,25.6410256 C117.312514,25.7435897 117.392038,25.8119658 117.511323,25.8119658 L119.459653,25.8119658 C119.578938,25.8119658 119.658462,25.7435897 119.658462,25.6410256 L119.658462,14.3589744 C119.658462,14.2564103 119.578938,14.1880342 119.459653,14.1880342 L117.511323,14.1880342 C117.392038,14.1880342 117.312514,14.2564103 117.312514,14.3589744 L117.312514,25.6410256 Z M129.011011,25.8119658 C129.130296,25.8119658 129.20982,25.7435897 129.20982,25.6410256 L129.20982,16.1025641 C129.20982,16.034188 129.249581,16 129.329105,16 L132.867907,16 C132.987193,16 133.066716,15.9316239 133.066716,15.8290598 L133.066716,14.3589744 C133.066716,14.2564103 132.987193,14.1880342 132.867907,14.1880342 L123.205784,14.1880342 C123.086499,14.1880342 123.006975,14.2564103 123.006975,14.3589744 L123.006975,15.8290598 C123.006975,15.9316239 123.086499,16 123.205784,16 L126.744587,16 C126.82411,16 126.863872,16.034188 126.863872,16.1025641 L126.863872,25.6410256 C126.863872,25.7435897 126.943396,25.8119658 127.062681,25.8119658 L129.011011,25.8119658 Z M134.089163,25.6410256 C134.049402,25.7435897 134.089163,25.8119658 134.22833,25.8119658 L136.156778,25.8119658 C136.295945,25.8119658 136.375468,25.7606838 136.41523,25.6410256 L137.309871,23.3846154 L142.399384,23.3846154 L143.294025,25.6410256 C143.333787,25.7606838 143.413311,25.8119658 143.552477,25.8119658 L145.500807,25.8119658 C145.639973,25.8119658 145.679735,25.7435897 145.639973,25.6410256 L141.067363,14.3589744 C141.027602,14.2564103 140.948078,14.1880342 140.808911,14.1880342 L138.979868,14.1880342 C138.840701,14.1880342 138.761178,14.2564103 138.721416,14.3589744 L134.089163,25.6410256 Z M138.025584,21.5897436 L139.834747,17.0769231 L139.89439,17.0769231 L141.683672,21.5897436 L138.025584,21.5897436 Z M148.908963,25.6410256 C148.908963,25.7435897 148.988487,25.8119658 149.107772,25.8119658 L157.57704,25.8119658 C157.696326,25.8119658 157.775849,25.7435897 157.775849,25.6410256 L157.775849,24.1709402 C157.775849,24.0683761 157.696326,24 157.57704,24 L151.374196,24 C151.294672,24 151.25491,23.965812 151.25491,23.8974359 L151.25491,14.3589744 C151.25491,14.2564103 151.175387,14.1880342 151.056101,14.1880342 L149.107772,14.1880342 C148.988487,14.1880342 148.908963,14.2564103 148.908963,14.3589744 L148.908963,25.6410256 Z M163.311263,25.8119658 C163.430549,25.8119658 163.510072,25.7435897 163.510072,25.6410256 L163.510072,21.5213675 C163.510072,21.4529915 163.549834,21.4188034 163.629358,21.4188034 L166.432566,21.4188034 C169.056847,21.4188034 170.88589,19.965812 170.88589,17.7948718 C170.88589,15.6410256 169.056847,14.1880342 166.432566,14.1880342 L161.362934,14.1880342 C161.243648,14.1880342 161.164125,14.2564103 161.164125,14.3589744 L161.164125,25.6410256 C161.164125,25.7435897 161.243648,25.8119658 161.362934,25.8119658 L163.311263,25.8119658 Z M166.2934,19.5897436 L163.629358,19.5897436 C163.549834,19.5897436 163.510072,19.5555556 163.510072,19.4871795 L163.510072,16.1025641 C163.510072,16.034188 163.549834,16 163.629358,16 L166.2934,16 C167.685064,16 168.539943,16.7350427 168.539943,17.7948718 C168.539943,18.8717949 167.685064,19.5897436 166.2934,19.5897436 L166.2934,19.5897436 Z M172.007742,25.6410256 C171.96798,25.7435897 172.007742,25.8119658 172.146908,25.8119658 L174.075357,25.8119658 C174.214523,25.8119658 174.294047,25.7606838 174.333809,25.6410256 L175.22845,23.3846154 L180.317963,23.3846154 L181.212604,25.6410256 C181.252366,25.7606838 181.331889,25.8119658 181.471056,25.8119658 L183.419385,25.8119658 C183.558552,25.8119658 183.598313,25.7435897 183.558552,25.6410256 L178.985942,14.3589744 C178.94618,14.2564103 178.866656,14.1880342 178.72749,14.1880342 L176.898446,14.1880342 C176.75928,14.1880342 176.679756,14.2564103 176.639994,14.3589744 L172.007742,25.6410256 Z M175.944162,21.5897436 L177.753325,17.0769231 L177.812968,17.0769231 L179.60225,21.5897436 L175.944162,21.5897436 Z M196.708354,25.8119658 C196.847521,25.8119658 196.927044,25.7094017 196.847521,25.5897436 L194.00455,20.8547009 C195.555262,20.3589744 196.569188,19.1794872 196.569188,17.6581197 C196.569188,15.6068376 194.740144,14.1880342 192.25503,14.1880342 L187.026351,14.1880342 C186.907065,14.1880342 186.827541,14.2564103 186.827541,14.3589744 L186.827541,25.6410256 C186.827541,25.7435897 186.907065,25.8119658 187.026351,25.8119658 L188.97468,25.8119658 C189.093965,25.8119658 189.173489,25.7435897 189.173489,25.6410256 L189.173489,21.2136752 C189.173489,21.1452991 189.213251,21.1111111 189.292774,21.1111111 L191.618841,21.1111111 L194.20336,25.6410256 C194.263002,25.7606838 194.342526,25.8119658 194.501573,25.8119658 L196.708354,25.8119658 Z M192.175507,19.2991453 L189.292774,19.2991453 C189.213251,19.2991453 189.173489,19.2649573 189.173489,19.1965812 L189.173489,16.1025641 C189.173489,16.034188 189.213251,16 189.292774,16 L192.175507,16 C193.408123,16 194.243121,16.6495726 194.243121,17.6581197 C194.243121,18.6495726 193.408123,19.2991453 192.175507,19.2991453 L192.175507,19.2991453 Z M205.444595,25.8119658 C205.56388,25.8119658 205.643404,25.7435897 205.643404,25.6410256 L205.643404,16.1025641 C205.643404,16.034188 205.683166,16 205.76269,16 L209.301492,16 C209.420777,16 209.500301,15.9316239 209.500301,15.8290598 L209.500301,14.3589744 C209.500301,14.2564103 209.420777,14.1880342 209.301492,14.1880342 L199.639369,14.1880342 C199.520083,14.1880342 199.44056,14.2564103 199.44056,14.3589744 L199.44056,15.8290598 C199.44056,15.9316239 199.520083,16 199.639369,16 L203.178171,16 C203.257695,16 203.297457,16.034188 203.297457,16.1025641 L203.297457,25.6410256 C203.297457,25.7435897 203.37698,25.8119658 203.496266,25.8119658 L205.444595,25.8119658 Z M212.848814,25.6410256 C212.848814,25.7435897 212.928338,25.8119658 213.047624,25.8119658 L214.777263,25.8119658 C214.896548,25.8119658 214.976072,25.7435897 214.976072,25.6410256 L214.976072,17.6410256 L215.055596,17.6410256 L220.582489,25.6410256 C220.662013,25.7606838 220.761417,25.8119658 220.920465,25.8119658 L222.729627,25.8119658 C222.848913,25.8119658 222.928437,25.7435897 222.928437,25.6410256 L222.928437,14.3589744 C222.928437,14.2564103 222.848913,14.1880342 222.729627,14.1880342 L220.999988,14.1880342 C220.880703,14.1880342 220.801179,14.2564103 220.801179,14.3589744 L220.801179,22.3760684 L220.721655,22.3760684 L215.214643,14.3589744 C215.135119,14.2393162 215.035715,14.1880342 214.876667,14.1880342 L213.047624,14.1880342 C212.928338,14.1880342 212.848814,14.2564103 212.848814,14.3589744 L212.848814,25.6410256 Z M227.330638,25.6410256 C227.330638,25.7435897 227.410162,25.8119658 227.529448,25.8119658 L235.998716,25.8119658 C236.118001,25.8119658 236.197525,25.7435897 236.197525,25.6410256 L236.197525,24.1709402 C236.197525,24.0683761 236.118001,24 235.998716,24 L229.795871,24 C229.716348,24 229.676586,23.965812 229.676586,23.8974359 L229.676586,20.957265 C229.676586,20.8888889 229.716348,20.8547009 229.795871,20.8547009 L235.024551,20.8547009 C235.143837,20.8547009 235.22336,20.7863248 235.22336,20.6837607 L235.22336,19.2136752 C235.22336,19.1111111 235.143837,19.042735 235.024551,19.042735 L229.795871,19.042735 C229.716348,19.042735 229.676586,19.008547 229.676586,18.9401709 L229.676586,16.1025641 C229.676586,16.034188 229.716348,16 229.795871,16 L235.998716,16 C236.118001,16 236.197525,15.9316239 236.197525,15.8290598 L236.197525,14.3589744 C236.197525,14.2564103 236.118001,14.1880342 235.998716,14.1880342 L227.529448,14.1880342 C227.410162,14.1880342 227.330638,14.2564103 227.330638,14.3589744 L227.330638,25.6410256 Z M249.963636,25.8119658 C250.102803,25.8119658 250.182326,25.7094017 250.102803,25.5897436 L247.259832,20.8547009 C248.810543,20.3589744 249.82447,19.1794872 249.82447,17.6581197 C249.82447,15.6068376 247.995426,14.1880342 245.510312,14.1880342 L240.281632,14.1880342 C240.162347,14.1880342 240.082823,14.2564103 240.082823,14.3589744 L240.082823,25.6410256 C240.082823,25.7435897 240.162347,25.8119658 240.281632,25.8119658 L242.229962,25.8119658 C242.349247,25.8119658 242.428771,25.7435897 242.428771,25.6410256 L242.428771,21.2136752 C242.428771,21.1452991 242.468532,21.1111111 242.548056,21.1111111 L244.874123,21.1111111 L247.458641,25.6410256 C247.518284,25.7606838 247.597808,25.8119658 247.756855,25.8119658 L249.963636,25.8119658 Z M245.430788,19.2991453 L242.548056,19.2991453 C242.468532,19.2991453 242.428771,19.2649573 242.428771,19.1965812 L242.428771,16.1025641 C242.428771,16.034188 242.468532,16 242.548056,16 L245.430788,16 C246.663405,16 247.498403,16.6495726 247.498403,17.6581197 C247.498403,18.6495726 246.663405,19.2991453 245.430788,19.2991453 L245.430788,19.2991453 Z M258.063688,26 C261.423562,26 263.153201,24.4615385 263.153201,22.3931624 C263.153201,20.3931624 261.721775,19.3333333 259.117376,19.025641 L258.401663,18.9401709 C256.572619,18.7179487 255.916549,18.1709402 255.916549,17.3675214 C255.916549,16.4615385 256.672024,15.8119658 258.043807,15.8119658 C259.177019,15.8119658 260.190945,16.1025641 261.284395,16.7179487 C261.3838,16.7692308 261.483204,16.7521368 261.562728,16.6666667 L262.517012,15.4017094 C262.596535,15.2991453 262.576654,15.2307692 262.47725,15.1623932 C261.403681,14.4615385 259.793327,14 258.103449,14 C255.320122,14 253.53084,15.4017094 253.53084,17.5042735 C253.53084,19.4358974 255.002027,20.5128205 257.606427,20.8205128 L258.322139,20.9059829 C260.190945,21.1282051 260.787372,21.6752137 260.787372,22.5128205 C260.787372,23.4871795 259.85297,24.1880342 258.242616,24.1880342 C256.731666,24.1880342 255.439407,23.5555556 254.564647,22.957265 C254.485123,22.8888889 254.365838,22.8888889 254.286314,22.974359 L253.053698,24.2051282 C252.974174,24.2905983 253.013936,24.3931624 253.09346,24.4615385 C254.147148,25.3162393 256.075596,26 258.063688,26 L258.063688,26 Z" id="DIGITALPARTNERS.IO-Copy-2" fill="#E7E7E7"></path>
                                    <g id="Group-2-Copy-35" fill="">
                                        <g id="Group">
                                            <g id="Group-3">
                                                <path d="M45.5664047,19.8283625 C45.5664047,8.92197612 36.125388,0.120516617 22.6499573,0.0010686507 C9.17452665,-0.118379316 0.283520859,9.79580191 0.00567692741,19.5905352 C-0.272167004,29.3852684 9.68346862,39.2576914 22.24469,39.2576914 C28.4846799,39.4188976 33.0691047,37.3882822 34.3194024,36.5521464 C22.0942694,29.6241644 22.7832023,19.8283625 22.7832023,19.8283625 L45.5664047,19.8283625 Z" id="Oval-Copy-3" transform="translate(22.783202, 19.633380) scale(-1, -1) rotate(-180.000000) translate(-22.783202, -19.633380) "></path>
                                                <path d="M68.627451,19.7932639 C68.627451,8.88687753 57.5136937,0 45.4274827,0 C33.3412717,0 22.7832023,8.72192506 22.7832023,19.6283114 C22.7832023,25.5340534 25.9197279,30.8265474 30.6285388,34.442476 C34.6156903,37.5042375 39.7301284,39.3639462 45.0222154,39.3760708 C45.178568,39.3496271 51.6789712,39.7761729 57.0969278,36.6705258 C45.1496388,30.9019248 45.8442486,19.5543679 45.8442486,19.5543679 L68.627451,19.7932639 Z" id="Oval-Copy-2" transform="translate(45.705327, 19.691365) rotate(-180.000000) translate(-45.705327, -19.691365) "></path>
                                            </g>
                                        </g>
                                    </g>
                                </g>
                            </g>
                        </g>
                    </g>
                </g>
            </g>
        </g>
    </g>
</svg>