<?xml version="1.0" encoding="UTF-8"?>
<svg width="1057px" height="264px" viewBox="0 0 1057 264" version="1.1" xmlns="http://www.w3.org/2000/svg" xmlns:xlink="http://www.w3.org/1999/xlink">
    <!-- Generator: Sketch 43.2 (39069) - http://www.bohemiancoding.com/sketch -->
    <title>Group 20</title>
    <desc>Created with Sketch.</desc>
    <defs></defs>
    <g id="Landing-Page-old" stroke="none" stroke-width="1" fill="none" fill-rule="evenodd" stroke-linejoin="round">
        <g id="Landing-Page-v2" transform="translate(-165.000000, -2283.000000)">
            <g id="Group-35" transform="translate(-1.000000, 1600.000000)">
                <g id="Group-37" transform="translate(0.000000, 505.000000)">
                    <g id="Group-25" transform="translate(0.000000, 40.000000)">
                        <g id="Group-26">
                            <g id="Group-20" transform="translate(168.000000, 140.000000)">
                                <g id="Group-17" transform="translate(494.000000, 48.000000)" stroke-width="3" stroke="#000000">
                                    <g id="Group" stroke-linecap="round">
                                        <polygon id="Stroke-35" points="33.3333333 70 0 70 0 3.33333333 50 3.33333333 50 53.3333333"></polygon>
                                        <polyline id="Stroke-36" points="33.3333333 70 33.3333333 53.3333333 50 53.3333333"></polyline>
                                        <polyline id="Stroke-37" points="10 18.3333333 15 23.3333333 23.3333333 13.3333333"></polyline>
                                        <polyline id="Stroke-38" points="10 36.6666667 15 41.6666667 23.3333333 31.6666667"></polyline>
                                        <path d="M26.6666667,20 L40,20" id="Stroke-39"></path>
                                        <path d="M26.6666667,40 L40,40" id="Stroke-40"></path>
                                        <polygon id="Stroke-41" points="66.6666667 60 56.6666667 60 56.6666667 3.33333333 66.6666667 3.33333333"></polygon>
                                        <polyline id="Stroke-42" points="56.6666667 60 61.6666667 70 66.6666667 60"></polyline>
                                        <path d="M56.6666667,20 L66.6666667,20" id="Stroke-43"></path>
                                        <polyline id="Stroke-44" points="66.6666667 6.66666667 76.6666667 6.66666667 73.3333333 30 76.6666667 33.3333333"></polyline>
                                        <path d="M61,7 L61,0" id="Stroke-45"></path>
                                    </g>
                                    <g id="Group-Copy" transform="translate(1.000000, 95.000000)">
                                        <polygon id="Stroke-586" stroke-linecap="round" points="41.6086957 53.2608696 41.6086957 60.8695652 34 60.8695652 24.8695652 70 15.7391304 60.8695652 8.13043478 60.8695652 8.13043478 53.2608696 0.52173913 45.6521739 8.13043478 38.0434783 8.13043478 30.4347826 15.7391304 30.4347826 24.8695652 21.3043478 34 30.4347826 41.6086957 30.4347826 41.6086957 38.0434783 49.2173913 45.6521739"></polygon>
                                        <polyline id="Stroke-587" stroke-linecap="round" points="11.173913 0 11.173913 15.2173913 24.8695652 21.3043478 38.5652174 15.2173913 38.5652174 0"></polyline>
                                        <path d="M5.08695652,0 L44.6521739,0" id="Stroke-588" stroke-linecap="round"></path>
                                        <path d="M20,0 L20,19.0217391" id="Stroke-589" stroke-linecap="round"></path>
                                        <path d="M29,0 L29,19.0217391" id="Stroke-590" stroke-linecap="round"></path>
                                        <polygon id="Stroke-591" points="32.4782609 50.2173913 24.8695652 54.7826087 17.2608696 50.2173913 17.2608696 41.0869565 24.8695652 36.5217391 32.4782609 41.0869565"></polygon>
                                    </g>
                                </g>
                                <g id="Group-18" transform="translate(980.000000, 49.000000)" stroke-width="3" stroke="#000000">
                                    <g id="Group" transform="translate(0.000000, 94.000000)">
                                        <polygon id="Stroke-51" points="22.2727273 31.8181818 38.1818182 70 6.36363636 70"></polygon>
                                        <polyline id="Stroke-52" points="31.5719091 54.1345 49.3169091 12.7263182 73.1805455 69.9990455 38.1805455 69.9990455"></polyline>
                                        <polyline id="Stroke-53" stroke-linecap="round" points="0 7 6.36363636 0 12.7272727 7 19.0909091 0 25.4545455 7 31.8181818 0 38.1818182 7"></polyline>
                                        <polyline id="Stroke-54" stroke-linecap="round" points="0 19.7272727 6.36363636 12.7272727 12.7272727 19.7272727 19.0909091 12.7272727 25.4545455 19.7272727"></polyline>
                                        <polyline id="Stroke-55" points="39.7711364 34.9984091 44.5470455 41.9984091 49.3197727 35.0030726 54.0925 41.9984091 58.6775 35.273559"></polyline>
                                    </g>
                                    <g id="Group" stroke-linecap="round">
                                        <path d="M50.2173913,59.8695652 L39.5652174,46.173913" id="Stroke-472"></path>
                                        <polygon id="Stroke-473" points="39.5652174 46.173913 35 0.52173913 30.4347826 46.173913"></polygon>
                                        <polygon id="Stroke-474" points="44.1304348 26.3913043 45.6521739 11.173913 66.9565217 6.60869565 57.826087 26.3913043"></polygon>
                                        <path d="M54.7826087,17.2608696 L44.1304348,26.3913043" id="Stroke-475"></path>
                                        <path d="M19.7826087,59.8695652 L30.4347826,46.173913" id="Stroke-476"></path>
                                        <polyline id="Stroke-477" points="23.856 54.6326522 12.1751304 50.7400435 0.0012173913 65.9574348 70.0012174 65.9574348 57.8273043 50.7400435 46.1433913 54.6326522"></polyline>
                                        <polygon id="Stroke-478" points="25.8695652 26.3913043 24.3478261 11.173913 3.04347826 6.60869565 12.173913 26.3913043"></polygon>
                                        <path d="M15.2173913,17.2608696 L25.8695652,26.3913043" id="Stroke-479"></path>
                                    </g>
                                </g>
                                <g id="Group-19" transform="translate(252.000000, 0.000000)" stroke="#000000" stroke-width="3">
                                    <g id="Group" transform="translate(7.000000, 95.000000)">
                                        <polygon id="Stroke-287" points="30.4347826 18.2608696 25.8695652 21.3043478 21.3043478 18.2608696 21.3043478 13.6956522 25.8695652 10.6521739 30.4347826 13.6956522"></polygon>
                                        <path d="M35,0 L35,7" id="Stroke-288" stroke-linecap="round"></path>
                                        <polygon id="Stroke-289" stroke-linecap="round" points="47.173913 70 22.826087 70 18.2608696 47.173913 25.8695652 39.5652174 44.1304348 39.5652174 51.7391304 47.173913"></polygon>
                                        <path d="M35,30.4347826 L35,39.5652174" id="Stroke-290" stroke-linecap="round"></path>
                                        <path d="M21.609,63 L48.3916087,63" id="Stroke-291" stroke-linecap="round"></path>
                                        <polyline id="Stroke-292" stroke-linecap="round" points="6.08695652 47.173913 7.60869565 56.3043478 19.3078261 52.4056522"></polyline>
                                        <polyline id="Stroke-293" stroke-linecap="round" points="0 35 0 41.0869565 6.08695652 47.173913 12.173913 41.0869565 12.173913 35"></polyline>
                                        <polygon id="Stroke-294" stroke-linecap="round" points="47.173913 30.4347826 60.8695652 16.7391304 47.173913 3.04347826 22.826087 3.04347826 9.13043478 16.7391304 22.826087 30.4347826"></polygon>
                                        <polygon id="Stroke-295" points="39.5652174 18.2608696 44.1304348 21.3043478 48.6956522 18.2608696 48.6956522 13.6956522 44.1304348 10.6521739 39.5652174 13.6956522"></polygon>
                                        <polyline id="Stroke-296" stroke-linecap="round" points="63.9130435 47.173913 62.3913043 56.3043478 50.6921739 52.4056522"></polyline>
                                        <polyline id="Stroke-297" stroke-linecap="round" points="70 35 70 41.0869565 63.9130435 47.173913 57.826087 41.0869565 57.826087 35"></polyline>
                                    </g>
                                    <g id="Group-16" transform="translate(7.000000, 0.000000)" stroke-linecap="round">
                                        <polygon id="Stroke-655" points="15.2173913 35 15.2173913 28.9130435 19.7826087 24.3478261 25.8695652 24.3478261 30.4347826 28.9130435 30.4347826 35 25.8695652 39.5652174 19.7826087 39.5652174"></polygon>
                                        <polygon id="Stroke-656" points="39.5652174 35 39.5652174 28.9130435 44.1304348 24.3478261 50.2173913 24.3478261 54.7826087 28.9130435 54.7826087 35 50.2173913 39.5652174 44.1304348 39.5652174"></polygon>
                                        <path d="M30.4347826,30 L39.5652174,30" id="Stroke-657"></path>
                                        <polyline id="Stroke-658" points="10.6521739 48.6956522 24.3478261 55.6956522 35 48.6956522 45.6521739 55.6956522 59.3478261 48.6956522"></polyline>
                                        <path d="M31.9565217,60 L38.9565217,60" id="Stroke-659"></path>
                                        <polygon id="Stroke-660" points="60.8695652 57.826087 35 70 9.13043478 57.826087 9.13043478 12.173913 35 0 60.8695652 12.173913"></polygon>
                                        <polygon id="Stroke-661" points="0 45.6521739 9.13043478 51.7391304 9.13043478 33.4782609 0 33.4782609"></polygon>
                                        <polygon id="Stroke-662" points="60.8695652 51.7391304 70 45.6521739 70 33.4782609 60.8695652 33.4782609"></polygon>
                                        <polyline id="Stroke-663" points="23.8380435 5.57717391 35.0015217 16.7406522 46.158913 5.58021739"></polyline>
                                    </g>
                                    <g id="Group" transform="translate(0.000000, 190.000000)">
                                        <polygon id="Stroke-466" points="20.2631579 70 0 35 20.2631579 0 64.4736842 0 84.7368421 35 64.4736842 70"></polygon>
                                        <polygon id="Stroke-467" points="84.7368421 35 57.1052632 18.4210526 20.2631579 0 16.5789474 40.5263158 20.2631579 70 58.9473684 62.6315789"></polygon>
                                        <polygon id="Stroke-468" points="57.1052632 18.4210526 16.5789474 40.5263158 58.9473684 62.6315789"></polygon>
                                        <path d="M65.9473684,70 L58.9473684,62.6315789" id="Stroke-469"></path>
                                        <path d="M0,35 L16.5789474,42" id="Stroke-470"></path>
                                        <path d="M64.4736842,0 L57.1052632,18.4210526" id="Stroke-471"></path>
                                    </g>
                                </g>
                                <g id="Group" transform="translate(736.000000, 95.000000)" stroke="#000000" stroke-width="3">
                                    <polygon id="Stroke-115" points="70 42.6086957 62.3913043 42.6086957 62.3913043 54.7826087 50.2173913 42.6086957 15.2173913 42.6086957 15.2173913 0 70 0"></polygon>
                                    <polyline id="Stroke-116" stroke-linecap="round" points="31.9565217 25.8695652 36.5217391 32.8695652 48.6956522 32.8695652 53.2608696 25.8695652"></polyline>
                                    <path d="M36,13.6956522 L36,20.6956522" id="Stroke-117" stroke-linecap="round"></path>
                                    <path d="M48,13.6956522 L48,20.6956522" id="Stroke-118" stroke-linecap="round"></path>
                                    <polyline id="Stroke-119" points="45.6521739 42.6086957 45.6521739 57.826087 16.7391304 57.826087 4.56521739 70 4.56521739 57.826087 0 57.826087 0 21.3043478 15.2173913 21.3043478"></polyline>
                                </g>
                                <g id="Group-15" transform="translate(0.000000, 48.000000)" stroke="#000000" stroke-width="3">
                                    <g id="Stroke-268-+-Stroke-269-+-Stroke-270" transform="translate(0.000000, 95.000000)" stroke-linecap="round">
                                        <polygon id="Stroke-268" points="0 57.826087 24.3478261 70 48.6956522 57.826087 24.3478261 45.6521739"></polygon>
                                        <path d="M24,57.826087 L24,0" id="Stroke-269"></path>
                                        <polyline id="Stroke-270" points="24.3478261 6.08695652 60.8695652 6.08695652 48.6956522 18.2608696 60.8695652 30.4347826 24.3478261 30.4347826"></polyline>
                                    </g>
                                    <g id="Group" transform="translate(3.000000, 0.000000)">
                                        <polygon id="Stroke-1" points="57.826087 53.2608696 28.9130435 70 0 53.2608696 0 16.7391304 28.9130435 0 57.826087 16.7391304"></polygon>
                                        <polyline id="Stroke-2" points="52.3685217 56.4203043 34.9993913 50.2176957 34.9993913 44.1307391 45.6515652 38.0437826 45.6515652 22.8263913 28.9124348 13.6959565 12.1733043 22.8263913 12.1733043 38.0437826 22.8254783 44.1307391 22.8254783 50.2176957 5.95243478 56.7063913"></polyline>
                                        <polyline id="Stroke-3" stroke-linecap="round" points="22.826087 35 28.9130435 42 35 35"></polyline>
                                        <path d="M45.6521739,29.826087 L12.173913,22.826087" id="Stroke-4" stroke-linecap="round"></path>
                                    </g>
                                </g>
                                <polygon id="Stroke-614" stroke="#0076A5" transform="translate(892.500000, 129.543478) rotate(90.000000) translate(-892.500000, -129.543478) " points="913.043478 141.282609 892.5 152.043478 871.956522 141.282609 871.956522 117.804348 892.5 107.043478 913.043478 117.804348"></polygon>
                                <polyline id="Stroke-615" stroke="#0076A5" stroke-linecap="round" transform="translate(899.347826, 130.521739) rotate(90.000000) translate(-899.347826, -130.521739) " points="907.173913 134.434783 899.347826 126.608696 891.521739 134.434783"></polyline>
                                <path d="M891.521739,120.73913 L891.521739,142.26087" id="Stroke-616" stroke="#0076A5" stroke-linecap="round" transform="translate(892.500000, 131.500000) rotate(90.000000) translate(-892.500000, -131.500000) "></path>
                                <polygon id="Stroke-614" stroke="#0076A5" transform="translate(653.500000, 129.543478) rotate(90.000000) translate(-653.500000, -129.543478) " points="674.043478 141.282609 653.5 152.043478 632.956522 141.282609 632.956522 117.804348 653.5 107.043478 674.043478 117.804348"></polygon>
                                <polyline id="Stroke-615" stroke="#0076A5" stroke-linecap="round" transform="translate(660.347826, 130.521739) rotate(90.000000) translate(-660.347826, -130.521739) " points="668.173913 134.434783 660.347826 126.608696 652.521739 134.434783"></polyline>
                                <path d="M652.521739,120.73913 L652.521739,142.26087" id="Stroke-616" stroke="#0076A5" stroke-linecap="round" transform="translate(653.500000, 131.500000) rotate(90.000000) translate(-653.500000, -131.500000) "></path>
                                <polygon id="Stroke-614" stroke="#0076A5" transform="translate(415.500000, 129.543478) rotate(90.000000) translate(-415.500000, -129.543478) " points="415.5 152.043478 394.956522 141.282609 394.956522 117.804348 415.5 107.043478 436.043478 117.804348 436.043478 141.282609"></polygon>
                                <polyline id="Stroke-615" stroke="#0076A5" stroke-linecap="round" transform="translate(422.347826, 130.521739) rotate(90.000000) translate(-422.347826, -130.521739) " points="430.173913 134.434783 422.347826 126.608696 414.521739 134.434783"></polyline>
                                <path d="M414.521739,120.73913 L414.521739,142.26087" id="Stroke-616" stroke="#0076A5" stroke-linecap="round" transform="translate(415.500000, 131.500000) rotate(90.000000) translate(-415.500000, -131.500000) "></path>
                                <polygon id="Stroke-614" stroke="#0076A5" transform="translate(156.500000, 129.543478) rotate(90.000000) translate(-156.500000, -129.543478) " points="177.043478 141.282609 156.5 152.043478 135.956522 141.282609 135.956522 117.804348 156.5 107.043478 177.043478 117.804348"></polygon>
                                <polyline id="Stroke-615" stroke="#0076A5" stroke-linecap="round" transform="translate(163.347826, 130.521739) rotate(90.000000) translate(-163.347826, -130.521739) " points="171.173913 134.434783 163.347826 126.608696 155.521739 134.434783"></polyline>
                                <path d="M155.521739,120.73913 L155.521739,142.26087" id="Stroke-616" stroke="#0076A5" stroke-linecap="round" transform="translate(156.500000, 131.500000) rotate(90.000000) translate(-156.500000, -131.500000) "></path>
                            </g>
                        </g>
                    </g>
                </g>
            </g>
        </g>
    </g>
</svg>