<?xml version="1.0" encoding="UTF-8"?>
<svg width="379px" height="142px" viewBox="0 0 379 142" version="1.1" xmlns="http://www.w3.org/2000/svg" xmlns:xlink="http://www.w3.org/1999/xlink">
    <!-- Generator: Sketch 42 (36781) - http://www.bohemiancoding.com/sketch -->
    <title>Page 1</title>
    <desc>Created with Sketch.</desc>
    <defs></defs>
    <g id="Page-1" stroke="none" stroke-width="1" fill="none" fill-rule="evenodd">
        <g>
            <path d="M8.267,45.082 L0.264,45.082 L0.264,1.63 C5.224,1.298 10.053,1.167 15.013,1.167 C22.949,1.167 29.695,5.134 29.695,14.989 C29.695,23.587 21.428,29.275 13.492,29.275 C12.632,29.275 10.317,29.275 8.267,29.143 L8.267,45.082 M13.095,7.912 L8.267,7.979 L8.267,22.595 L11.574,22.595 C16.931,22.595 20.965,20.809 20.965,14.989 C20.965,10.227 18.716,7.912 13.558,7.912 L13.095,7.912" id="Fill-1" fill="#899FB0"></path>
            <path d="M68.787,45.082 L58.403,45.082 C53.84,38.6 51.194,34.5 47.16,27.423 L43.919,27.423 L43.919,45.082 L35.917,45.082 L35.917,1.761 C40.216,1.431 44.58,1.1 48.946,1.1 C58.073,1.1 65.348,4.87 65.348,14.196 C65.348,20.082 61.446,24.778 56.155,26.365 C59.991,32.979 63.166,37.806 68.787,45.082 M47.821,8.111 L43.919,8.177 L43.919,20.743 L47.953,20.743 C54.766,20.743 56.684,18.23 56.684,13.997 C56.684,10.227 54.105,8.111 48.35,8.111 L47.821,8.111" id="Fill-3" fill="#899FB0"></path>
            <path d="M92.999,46.008 C79.572,46.008 70.446,35.293 70.446,23.322 C70.446,11.418 79.572,0.571 92.999,0.571 C106.292,0.571 115.287,11.219 115.287,23.257 C115.287,34.963 106.358,46.008 92.999,46.008 M92.999,7.449 C84.996,7.449 79.176,14.129 79.176,23.257 C79.176,32.383 84.996,39.129 92.999,39.129 C100.935,39.129 106.491,32.184 106.491,23.257 C106.491,14.526 100.935,7.449 92.999,7.449" id="Fill-4" fill="#899FB0"></path>
            <polyline id="Fill-5" fill="#223059" points="131.101 8.376 131.101 20.214 146.643 20.214 146.643 27.027 131.101 27.027 131.101 45.082 123.099 45.082 123.099 1.497 149.024 1.497 149.024 8.376 131.101 8.376"></polyline>
            <path d="M173.566,45.875 C164.637,45.875 156.171,40.65 156.171,31.193 L156.171,1.497 L164.174,1.497 L164.174,29.341 C164.174,37.079 169.664,38.997 173.831,38.997 C178.857,38.997 184.082,37.013 184.082,29.275 L184.082,1.497 L192.084,1.497 L192.084,29.54 C192.084,40.915 184.281,45.875 173.566,45.875" id="Fill-6" fill="#223059"></path>
            <polyline id="Fill-7" fill="#899FB0" points="240.769 45.082 232.634 45.082 210.213 13.997 210.213 45.082 202.475 45.082 202.475 1.497 210.478 1.497 233.096 32.78 233.096 1.431 240.769 1.431 240.769 45.082"></polyline>
            <path d="M268.157,45.082 L252.019,45.082 L252.019,1.761 C254.4,1.563 255.392,1.497 256.251,1.431 C258.499,1.298 260.418,1.233 262.336,1.233 C264.253,1.233 266.238,1.298 268.751,1.298 C285.088,1.298 290.577,13.336 290.577,23.058 C290.577,32.383 285.022,45.082 268.157,45.082 M267.56,7.912 L260.022,8.045 L260.022,38.6 L267.164,38.6 C277.151,38.6 281.847,32.979 281.847,23.058 C281.847,16.179 278.276,7.912 268.024,7.912 L267.56,7.912" id="Fill-8" fill="#899FB0"></path>
            <polygon id="Fill-9" fill="#87C045" points="0 104.756 8.002 104.756 8.002 61.171 0 61.171"></polygon>
            <polyline id="Fill-10" fill="#87C045" points="49.34 104.756 26.919 73.67 26.919 104.756 19.181 104.756 19.181 61.171 27.185 61.171 49.803 92.453 49.803 61.105 57.475 61.105 57.475 104.756 49.34 104.756"></polyline>
            <polyline id="Fill-11" fill="#87C045" points="99.017 104.756 76.596 73.67 76.596 104.756 68.858 104.756 68.858 61.171 76.861 61.171 99.48 92.453 99.48 61.105 107.152 61.105 107.152 104.756 99.017 104.756"></polyline>
            <path d="M137.45,67.123 C129.447,67.123 123.626,73.803 123.626,82.931 C123.626,92.056 129.447,98.802 137.45,98.802 C145.386,98.802 150.942,91.859 150.942,82.931 C150.942,74.199 145.386,67.123 137.45,67.123 Z M137.45,105.681 C124.023,105.681 114.896,94.967 114.896,82.996 C114.896,71.092 124.023,60.244 137.45,60.244 C150.743,60.244 159.738,70.893 159.738,82.931 C159.738,94.636 150.809,105.681 137.45,105.681 L137.45,105.681 Z" id="Fill-12" fill="#87C045"></path>
            <polyline id="Fill-13" fill="#87C045" points="182.761 105.814 178.065 105.814 160.671 61.171 169.137 61.171 180.579 91.727 191.228 61.171 199.295 61.171 182.761 105.814"></polyline>
            <path d="M214.976,74.266 L210.347,87.89 L219.142,87.89 L214.976,74.266 Z M225.095,104.756 L221.589,94.703 L207.9,94.703 L204.26,104.756 L196.723,104.756 L213.256,59.715 L217.489,59.715 L233.096,104.756 L225.095,104.756 L225.095,104.756 Z" id="Fill-14" fill="#87C045"></path>
            <polyline id="Fill-15" fill="#87C045" points="253.208 67.917 253.208 104.756 245.207 104.756 245.207 67.917 232.375 67.917 232.375 61.105 266.106 61.105 266.106 67.917 253.208 67.917"></polyline>
            <polygon id="Fill-16" fill="#87C045" points="271.798 104.756 279.801 104.756 279.801 61.171 271.798 61.171"></polygon>
            <path d="M309.895,67.123 C301.893,67.123 296.073,73.803 296.073,82.931 C296.073,92.056 301.893,98.802 309.895,98.802 C317.832,98.802 323.387,91.859 323.387,82.931 C323.387,74.199 317.832,67.123 309.895,67.123 Z M309.895,105.681 C296.469,105.681 287.342,94.967 287.342,82.996 C287.342,71.092 296.469,60.244 309.895,60.244 C323.19,60.244 332.184,70.893 332.184,82.931 C332.184,94.636 323.255,105.681 309.895,105.681 L309.895,105.681 Z" id="Fill-17" fill="#87C045"></path>
            <polyline id="Fill-18" fill="#87C045" points="370.221 104.756 347.799 73.67 347.799 104.756 340.061 104.756 340.061 61.171 348.064 61.171 370.683 92.453 370.683 61.105 378.355 61.105 378.355 104.756 370.221 104.756"></polyline>
            <polyline id="Fill-19" fill="#223059" points="2.747 123.744 2.747 130.787 10.576 130.787 10.576 132.842 2.747 132.842 2.747 141.607 0.358 141.607 0.358 121.687 11.724 121.687 11.724 123.744 2.747 123.744"></polyline>
            <path d="M20.819,130.634 C20.819,130.453 20.759,129.668 19.852,129.668 C18.552,129.668 17.585,131.783 17.102,132.902 L17.102,141.607 L14.774,141.607 L14.774,131.662 C14.774,129.547 14.532,127.914 14.532,127.914 L16.678,127.914 L17.071,130.092 C17.525,128.912 18.704,127.582 20.185,127.582 C21.454,127.582 22.21,128.277 22.331,129.578 C22.421,130.273 22.421,130.273 22.421,130.392 L20.819,130.634" id="Fill-20" fill="#223059"></path>
            <path d="M29.644,129.517 C29.009,129.517 27.981,129.789 27.83,129.939 C27.649,130.092 26.802,130.847 26.47,132.207 L33.181,132.207 C33.06,129.789 31.427,129.517 29.644,129.517 Z M26.168,134.021 C26.107,134.353 26.107,134.414 26.107,134.777 C26.107,138.101 27.739,139.976 30.581,139.976 C32.213,139.976 34.057,139.281 34.873,138.554 L35.055,140.67 C33.846,141.425 32.455,142 29.855,142 C26.41,142 23.689,139.371 23.689,134.806 C23.689,130.121 26.289,127.552 29.795,127.552 C33.876,127.552 35.296,129.697 35.296,134.021 L26.168,134.021 L26.168,134.021 Z" id="Fill-21" fill="#223059"></path>
            <path d="M38.951,127.914 L41.279,127.914 L41.279,141.607 L38.951,141.607 L38.951,127.914 Z M40.069,124.619 C39.284,124.619 38.588,123.773 38.588,122.896 C38.588,122.05 39.284,121.265 40.069,121.265 C40.916,121.265 41.642,122.05 41.642,122.896 C41.642,123.744 40.916,124.619 40.069,124.619 L40.069,124.619 Z" id="Fill-22" fill="#223059"></path>
            <path d="M51.131,129.517 C50.497,129.517 49.469,129.789 49.317,129.939 C49.136,130.092 48.29,130.847 47.957,132.207 L54.668,132.207 C54.547,129.789 52.915,129.517 51.131,129.517 Z M47.655,134.021 C47.595,134.353 47.595,134.414 47.595,134.777 C47.595,138.101 49.227,139.976 52.068,139.976 C53.701,139.976 55.544,139.281 56.36,138.554 L56.542,140.67 C55.333,141.425 53.942,142 51.343,142 C47.897,142 45.176,139.371 45.176,134.806 C45.176,130.121 47.776,127.552 51.282,127.552 C55.363,127.552 56.784,129.697 56.784,134.021 L47.655,134.021 L47.655,134.021 Z" id="Fill-23" fill="#223059"></path>
            <path d="M75.4,141.97 C71.47,141.97 67.964,139.613 67.964,135.441 L67.964,121.687 L70.322,121.687 L70.322,134.595 C70.322,138.826 73.314,139.916 75.551,139.916 C78.15,139.916 80.992,138.765 80.992,134.564 L80.992,121.687 L83.38,121.687 L83.38,134.685 C83.38,139.795 80.146,141.97 75.4,141.97" id="Fill-24" fill="#223059"></path>
            <path d="M100.062,141.607 L97.764,141.607 C97.825,138.525 97.825,137.709 97.825,135.683 L97.825,134.414 C97.825,133.9 97.825,133.326 97.794,132.781 C97.674,130.695 97.492,129.638 95.467,129.638 C94.681,129.638 93.623,129.879 93.412,130 C93.079,130.181 91.81,131.511 91.145,132.418 L91.145,141.607 L88.817,141.607 L88.817,131.722 C88.817,129.547 88.575,127.914 88.575,127.914 L90.721,127.914 L91.084,129.939 C92.233,128.58 93.593,127.552 95.679,127.552 C98.127,127.552 99.82,128.338 100.031,131.148 C100.152,132.509 100.152,133.869 100.152,135.23 C100.152,137.406 100.152,138.494 100.062,141.607" id="Fill-25" fill="#223059"></path>
            <path d="M105.258,127.914 L107.585,127.914 L107.585,141.607 L105.258,141.607 L105.258,127.914 Z M106.376,124.619 C105.59,124.619 104.895,123.773 104.895,122.896 C104.895,122.05 105.59,121.265 106.376,121.265 C107.223,121.265 107.948,122.05 107.948,122.896 C107.948,123.744 107.223,124.619 106.376,124.619 L106.376,124.619 Z" id="Fill-26" fill="#223059"></path>
            <polyline id="Fill-27" fill="#223059" points="117.619 142 115.806 142 110.365 127.914 112.843 127.914 116.833 138.465 120.4 127.914 122.697 127.914 117.619 142"></polyline>
            <path d="M130.07,129.517 C129.436,129.517 128.407,129.789 128.257,129.939 C128.075,130.092 127.229,130.847 126.896,132.207 L133.606,132.207 C133.486,129.789 131.854,129.517 130.07,129.517 Z M126.594,134.021 C126.533,134.353 126.533,134.414 126.533,134.777 C126.533,138.101 128.166,139.976 131.007,139.976 C132.64,139.976 134.483,139.281 135.3,138.554 L135.48,140.67 C134.271,141.425 132.881,142 130.281,142 C126.836,142 124.115,139.371 124.115,134.806 C124.115,130.121 126.715,127.552 130.222,127.552 C134.302,127.552 135.723,129.697 135.723,134.021 L126.594,134.021 L126.594,134.021 Z" id="Fill-28" fill="#223059"></path>
            <path d="M145.635,130.634 C145.635,130.453 145.574,129.668 144.668,129.668 C143.368,129.668 142.4,131.783 141.917,132.902 L141.917,141.607 L139.59,141.607 L139.59,131.662 C139.59,129.547 139.348,127.914 139.348,127.914 L141.494,127.914 L141.887,130.092 C142.34,128.912 143.52,127.582 145,127.582 C146.27,127.582 147.025,128.277 147.146,129.578 C147.237,130.273 147.237,130.273 147.237,130.392 L145.635,130.634" id="Fill-29" fill="#223059"></path>
            <path d="M152.887,142 C151.225,142 149.592,141.607 148.534,140.883 L148.807,138.705 C150.227,139.613 150.982,140.095 152.826,140.095 C154.641,140.095 155.759,139.22 155.759,138.07 C155.759,135.502 148.474,135.441 148.474,131.361 C148.474,129.215 150.137,127.552 153.552,127.552 C155.486,127.552 156.907,128.066 157.904,128.58 L157.663,130.756 C156.333,129.668 154.761,129.425 153.37,129.425 C152.131,129.425 150.801,129.91 150.801,131.209 C150.801,133.718 158.086,133.748 158.086,137.92 C158.086,140.006 156.454,142 152.887,142" id="Fill-30" fill="#223059"></path>
            <path d="M161.953,127.914 L164.28,127.914 L164.28,141.607 L161.953,141.607 L161.953,127.914 Z M163.071,124.619 C162.285,124.619 161.59,123.773 161.59,122.896 C161.59,122.05 162.285,121.265 163.071,121.265 C163.918,121.265 164.644,122.05 164.644,122.896 C164.644,123.744 163.918,124.619 163.071,124.619 L163.071,124.619 Z" id="Fill-31" fill="#223059"></path>
            <path d="M172.652,142 C171.021,142 169.69,140.972 169.69,138.586 L169.69,129.758 L167.212,129.758 L167.212,127.945 L169.69,127.945 L169.69,123.289 L171.957,123.289 L171.957,127.914 L175.555,127.914 L175.555,129.728 L171.957,129.728 L171.957,137.83 C171.957,139.31 172.351,139.976 173.378,139.976 C174.043,139.976 174.708,139.492 175.403,139.189 L175.585,141.125 C174.859,141.578 173.68,142 172.652,142" id="Fill-32" fill="#223059"></path>
            <path d="M185.497,125.709 C184.59,125.709 183.895,124.953 183.895,124.045 C183.895,123.109 184.59,122.293 185.497,122.293 C186.403,122.293 187.129,123.078 187.129,124.045 C187.129,124.953 186.403,125.709 185.497,125.709 Z M185.164,135.744 C183.713,135.986 181.507,136.771 180.177,137.406 C180.025,137.98 180.025,138.252 180.025,138.525 C180.025,139.371 180.268,139.976 181.688,139.976 C183.472,139.976 185.164,137.98 185.164,137.738 L185.164,135.744 Z M180.389,125.709 C179.481,125.709 178.786,124.953 178.786,124.045 C178.786,123.109 179.481,122.293 180.389,122.293 C181.295,122.293 182.021,123.078 182.021,124.045 C182.021,124.953 181.295,125.709 180.389,125.709 Z M185.92,141.607 C185.738,140.883 185.497,140.429 185.346,139.642 C184.438,140.943 183.229,142 181.054,142 C178.968,142 177.668,140.64 177.668,138.918 C177.668,137.648 177.909,136.8 178.212,136.408 C178.998,135.291 183.804,134.172 185.164,133.929 L185.164,132.025 C185.164,130 184.59,129.547 182.625,129.547 C181.325,129.547 180.419,129.668 180.419,130.726 L178.242,130.908 C178.242,130.121 178.333,129.425 178.514,128.851 C178.574,128.609 180.025,127.552 182.958,127.552 C185.95,127.552 187.492,128.972 187.492,131.179 L187.492,137.527 C187.492,139.674 188.097,141.607 188.097,141.607 L185.92,141.607 L185.92,141.607 Z" id="Fill-33" fill="#223059"></path>
            <path d="M195.53,142 C193.898,142 192.568,140.972 192.568,138.586 L192.568,129.758 L190.09,129.758 L190.09,127.945 L192.568,127.945 L192.568,123.289 L194.835,123.289 L194.835,127.914 L198.433,127.914 L198.433,129.728 L194.835,129.728 L194.835,137.83 C194.835,139.31 195.229,139.976 196.256,139.976 C196.921,139.976 197.586,139.492 198.281,139.189 L198.463,141.125 C197.737,141.578 196.559,142 195.53,142" id="Fill-34" fill="#223059"></path>
            <path d="M215.871,132.025 L211.851,132.025 L211.851,139.674 L215.689,139.674 C218.894,139.674 220.464,138.615 220.464,135.865 C220.464,133.295 218.591,132.025 215.871,132.025 Z M215.568,123.502 L215.507,123.502 L211.851,123.531 L211.851,130.031 L215.236,130.031 C218.017,130.031 219.226,128.791 219.226,126.765 C219.226,124.922 217.896,123.502 215.568,123.502 Z M216.837,141.607 L209.462,141.607 L209.462,121.748 C209.765,121.718 210.58,121.687 210.853,121.687 C212.908,121.597 213.845,121.537 216.052,121.537 C220.283,121.537 221.855,123.894 221.855,126.312 C221.855,128.791 220.585,130.787 218.47,130.967 C221.191,131.119 223.064,132.842 223.064,136.226 C223.064,139.461 220.617,141.607 216.837,141.607 L216.837,141.607 Z" id="Fill-35" fill="#223059"></path>
            <path d="M231.949,129.517 C231.314,129.517 230.285,129.789 230.134,129.939 C229.953,130.092 229.107,130.847 228.775,132.207 L235.484,132.207 C235.363,129.789 233.732,129.517 231.949,129.517 Z M228.472,134.021 C228.412,134.353 228.412,134.414 228.412,134.777 C228.412,138.101 230.044,139.976 232.884,139.976 C234.517,139.976 236.361,139.281 237.177,138.554 L237.359,140.67 C236.15,141.425 234.759,142 232.16,142 C228.714,142 225.994,139.371 225.994,134.806 C225.994,130.121 228.593,127.552 232.099,127.552 C236.179,127.552 237.601,129.697 237.601,134.021 L228.472,134.021 L228.472,134.021 Z" id="Fill-36" fill="#223059"></path>
            <path d="M247.511,130.634 C247.511,130.453 247.451,129.668 246.544,129.668 C245.246,129.668 244.277,131.783 243.794,132.902 L243.794,141.607 L241.466,141.607 L241.466,131.662 C241.466,129.547 241.224,127.914 241.224,127.914 L243.371,127.914 L243.763,130.092 C244.216,128.912 245.396,127.582 246.876,127.582 C248.146,127.582 248.902,128.277 249.023,129.578 C249.115,130.273 249.115,130.273 249.115,130.392 L247.511,130.634" id="Fill-37" fill="#223059"></path>
            <polygon id="Fill-38" fill="#223059" points="251.591 141.607 253.919 141.607 253.919 119.541 251.591 119.541"></polygon>
            <path d="M259.025,127.914 L261.353,127.914 L261.353,141.607 L259.025,141.607 L259.025,127.914 Z M260.144,124.619 C259.357,124.619 258.662,123.773 258.662,122.896 C258.662,122.05 259.357,121.265 260.144,121.265 C260.99,121.265 261.716,122.05 261.716,122.896 C261.716,123.744 260.99,124.619 260.144,124.619 L260.144,124.619 Z" id="Fill-39" fill="#223059"></path>
            <path d="M278.066,141.607 L275.769,141.607 C275.83,138.525 275.83,137.709 275.83,135.683 L275.83,134.414 C275.83,133.9 275.83,133.326 275.8,132.781 C275.679,130.695 275.498,129.638 273.472,129.638 C272.685,129.638 271.628,129.879 271.416,130 C271.083,130.181 269.814,131.511 269.15,132.418 L269.15,141.607 L266.822,141.607 L266.822,131.722 C266.822,129.547 266.58,127.914 266.58,127.914 L268.726,127.914 L269.089,129.939 C270.238,128.58 271.597,127.552 273.683,127.552 C276.132,127.552 277.826,128.338 278.037,131.148 C278.158,132.509 278.158,133.869 278.158,135.23 C278.158,137.406 278.158,138.494 278.066,141.607" id="Fill-40" fill="#223059"></path>
        </g>
    </g>
</svg>