<?xml version="1.0" encoding="utf-8"?>
<!-- Generator: Adobe Illustrator 16.0.0, SVG Export Plug-In . SVG Version: 6.00 Build 0)  -->
<!DOCTYPE svg PUBLIC "-//W3C//DTD SVG 1.1//EN" "http://www.w3.org/Graphics/SVG/1.1/DTD/svg11.dtd">
<svg version="1.1" id="Ebene_1" xmlns="http://www.w3.org/2000/svg" xmlns:xlink="http://www.w3.org/1999/xlink" x="0px" y="0px"
	 width="403px" height="270.302px" viewBox="0 0 403 270.302" enable-background="new 0 0 403 270.302" xml:space="preserve">
<g>
	<path d="M78.549,196h12.416v2.794h-9.24v6.479h8.415v2.794h-8.415v7.304h9.24v2.794H78.549V196z"/>
	<path d="M99.377,209.686l-5.271-7.716h3.715l3.524,5.779l3.588-5.779h3.334l-5.208,7.716l5.715,8.479h-3.683l-4.001-6.351
		l-4.001,6.351h-3.557L99.377,209.686z"/>
	<path d="M115.188,198.35h-3.366v-3.365h3.366V198.35z M112.013,201.97h2.985v16.194h-2.985V201.97z"/>
	<path d="M119.252,214.988c1.175,0.763,2.858,1.144,3.715,1.144c1.365,0,3.048-0.571,3.048-2.318c0-2.953-7.018-2.698-7.018-7.239
		c0-3.366,2.509-4.985,5.716-4.985c1.397,0,2.54,0.285,3.715,0.635l-0.254,2.604c-0.667-0.412-2.445-0.825-3.144-0.825
		c-1.524,0-2.858,0.635-2.858,1.969c0,3.303,7.018,2.35,7.018,7.525c0,3.461-2.763,5.049-5.652,5.049
		c-1.524,0-3.08-0.158-4.446-0.889L119.252,214.988z"/>
	<path d="M141.415,204.383h-4.287v8.859c0,1.873,1.143,2.89,2.508,2.89c0.921,0,1.588-0.286,2.032-0.571v2.54
		c-0.667,0.19-1.587,0.444-2.54,0.444c-3.08,0-4.985-1.461-4.985-4.699v-9.463h-3.652v-2.413h3.652v-3.747l2.985-0.952v4.699h4.287
		V204.383z"/>
	<path d="M157.576,217.497c-1.143,0.413-2.445,1.048-5.112,1.048c-5.748,0-8.383-3.493-8.383-8.764c0-4.795,3.017-8.192,7.589-8.192
		c5.398,0,7.145,3.938,7.145,9.145h-11.558c0,3.207,2.508,5.398,5.334,5.398c1.969,0,4.255-1.017,4.985-1.619V217.497z
		 M155.639,208.511c0-2.477-1.461-4.509-4.033-4.509c-2.921,0-4.128,2.413-4.35,4.509H155.639z"/>
	<path d="M162.813,201.97h2.89v2.572h0.063c0.889-1.842,3.048-2.953,5.303-2.953c4.191,0,6.065,2.604,6.065,6.954v9.621h-2.985
		v-8.383c0-3.778-0.826-5.62-3.43-5.779c-3.397,0-4.922,2.73-4.922,6.668v7.494h-2.985V201.97z"/>
	<path d="M181.037,215.561l9.336-11.178h-8.891v-2.413h12.352v2.604l-9.335,11.178h9.685v2.413h-13.146V215.561z"/>
	<path d="M212.408,217.466c0,4.922-2.541,7.747-8.352,7.747c-1.714,0-3.207-0.222-5.811-1.111l0.317-2.762
		c2.286,1.048,3.652,1.46,5.843,1.46c3.144,0,5.017-2.127,5.017-5.557v-1.588h-0.063c-1.271,1.684-3.366,2.509-5.43,2.509
		c-4.636,0-6.922-3.778-6.922-7.97c0-4.16,2.35-8.605,7.24-8.605c2.857,0,4.445,1.048,5.334,2.794h0.063v-2.413h2.763V217.466z
		 M209.423,210.258c0-3.366-1.556-6.256-4.731-6.256c-3.017,0-4.509,3.271-4.509,6.033c0,3.049,1.714,5.716,4.509,5.716
		S209.423,213.274,209.423,210.258z"/>
	<path d="M217.485,201.97h2.794v2.509h0.063c0.794-1.684,2.509-2.89,4.223-2.89c0.889,0,1.334,0.095,1.969,0.222v2.668
		c-0.54-0.223-1.143-0.286-1.651-0.286c-2.667,0-4.414,2.54-4.414,6.604v7.367h-2.985V201.97z"/>
	<path d="M244.157,218.164h-2.89v-2.572h-0.063c-0.889,1.842-3.048,2.953-5.303,2.953c-4.191,0-6.065-2.604-6.065-6.954v-9.621
		h2.985v8.383c0,3.779,0.826,5.62,3.43,5.779c3.397,0,4.922-2.73,4.922-6.668v-7.494h2.985V218.164z M232.917,196.317h2.984v3.176
		h-2.984V196.317z M238.124,196.317h2.985v3.176h-2.985V196.317z"/>
	<path d="M249.235,201.97h2.889v2.572h0.063c0.889-1.842,3.048-2.953,5.303-2.953c4.191,0,6.065,2.604,6.065,6.954v9.621h-2.985
		v-8.383c0-3.778-0.826-5.62-3.43-5.779c-3.397,0-4.922,2.73-4.922,6.668v7.494h-2.984V201.97z"/>
	<path d="M280.097,215.878h-0.063c-0.794,1.206-2.635,2.667-5.525,2.667c-4.89,0-6.954-4.35-6.954-8.764
		c0-4.351,2.287-8.192,6.986-8.192c2.826,0,4.445,1.111,5.366,2.604h0.063v-9.844h2.985v23.815h-2.858V215.878z M275.207,216.132
		c3.366,0,4.763-3.334,4.763-6.033c0-3.017-1.556-6.097-4.794-6.097s-4.509,3.049-4.445,6.001
		C270.666,212.544,272,216.132,275.207,216.132z"/>
	<path d="M302.354,218.164h-2.89v-2.572h-0.063c-0.89,1.842-3.049,2.953-5.303,2.953c-4.191,0-6.065-2.604-6.065-6.954v-9.621h2.985
		v8.383c0,3.779,0.825,5.62,3.429,5.779c3.398,0,4.922-2.73,4.922-6.668v-7.494h2.985V218.164z"/>
	<path d="M307.432,201.97h2.89v2.572h0.063c0.89-1.842,3.049-2.953,5.303-2.953c4.191,0,6.065,2.604,6.065,6.954v9.621h-2.985
		v-8.383c0-3.778-0.825-5.62-3.429-5.779c-3.398,0-4.922,2.73-4.922,6.668v7.494h-2.985V201.97z"/>
	<path d="M341.152,217.466c0,4.922-2.54,7.747-8.352,7.747c-1.715,0-3.207-0.222-5.811-1.111l0.317-2.762
		c2.286,1.048,3.651,1.46,5.843,1.46c3.144,0,5.017-2.127,5.017-5.557v-1.588h-0.063c-1.27,1.684-3.365,2.509-5.43,2.509
		c-4.636,0-6.922-3.778-6.922-7.97c0-4.16,2.35-8.605,7.239-8.605c2.858,0,4.445,1.048,5.335,2.794h0.063v-2.413h2.763V217.466z
		 M338.167,210.258c0-3.366-1.556-6.256-4.731-6.256c-3.016,0-4.509,3.271-4.509,6.033c0,3.049,1.715,5.716,4.509,5.716
		C336.23,215.751,338.167,213.274,338.167,210.258z"/>
	<path d="M358.646,217.497c-1.144,0.413-2.445,1.048-5.112,1.048c-5.747,0-8.383-3.493-8.383-8.764c0-4.795,3.017-8.192,7.589-8.192
		c5.398,0,7.145,3.938,7.145,9.145h-11.559c0,3.207,2.509,5.398,5.335,5.398c1.969,0,4.255-1.017,4.985-1.619V217.497z
		 M356.708,208.511c0-2.477-1.46-4.509-4.032-4.509c-2.922,0-4.128,2.413-4.351,4.509H356.708z"/>
	<path d="M363.883,201.97h2.89v2.572h0.063c0.89-1.842,3.049-2.953,5.303-2.953c4.191,0,6.065,2.604,6.065,6.954v9.621h-2.985
		v-8.383c0-3.778-0.825-5.62-3.429-5.779c-3.398,0-4.922,2.73-4.922,6.668v7.494h-2.985V201.97z"/>
	<path d="M78.866,237.113c1.493-0.89,3.271-1.524,5.335-1.524c4.636,0,6.509,2.286,6.509,6.7v6.699c0,1.842,0.063,2.699,0.127,3.176
		h-2.794v-2.096h-0.063c-0.698,0.984-2.286,2.477-5.017,2.477c-3.493,0-5.938-1.524-5.938-5.049c0-4.064,4.446-5.334,7.526-5.334
		c1.175,0,2,0,3.175,0.063c0-2.795-1.016-4.224-4.001-4.224c-1.683,0-3.493,0.635-4.7,1.651L78.866,237.113z M87.726,244.448
		c-0.635,0-1.27-0.063-1.905-0.063c-1.619,0-5.62,0.254-5.62,3.111c0,1.715,1.651,2.636,3.017,2.636
		c2.953,0,4.509-1.842,4.509-4.255V244.448z"/>
	<path d="M110.078,252.164h-2.89v-2.572h-0.063c-0.889,1.842-3.048,2.953-5.303,2.953c-4.191,0-6.065-2.604-6.065-6.954v-9.621
		h2.985v8.383c0,3.779,0.826,5.62,3.43,5.779c3.397,0,4.922-2.73,4.922-6.668v-7.494h2.985V252.164z"/>
	<path d="M113.949,248.988c1.175,0.763,2.858,1.144,3.715,1.144c1.365,0,3.048-0.571,3.048-2.318c0-2.953-7.018-2.698-7.018-7.239
		c0-3.366,2.509-4.985,5.716-4.985c1.397,0,2.54,0.285,3.715,0.635l-0.254,2.604c-0.667-0.412-2.445-0.825-3.144-0.825
		c-1.524,0-2.858,0.635-2.858,1.969c0,3.303,7.018,2.35,7.018,7.525c0,3.461-2.763,5.049-5.652,5.049
		c-1.524,0-3.08-0.158-4.446-0.889L113.949,248.988z"/>
	<path d="M147.796,249.878h-0.063c-0.794,1.206-2.636,2.667-5.525,2.667c-4.89,0-6.954-4.35-6.954-8.764
		c0-4.351,2.287-8.192,6.986-8.192c2.826,0,4.446,1.111,5.367,2.604h0.063v-9.844h2.985v23.815h-2.858V249.878z M142.906,250.132
		c3.366,0,4.763-3.334,4.763-6.033c0-3.017-1.556-6.097-4.795-6.097s-4.509,3.049-4.445,6.001
		C138.365,246.544,139.699,250.132,142.906,250.132z"/>
	<path d="M168.148,251.497c-1.143,0.413-2.445,1.048-5.112,1.048c-5.748,0-8.383-3.493-8.383-8.764c0-4.795,3.017-8.192,7.589-8.192
		c5.398,0,7.145,3.938,7.145,9.145h-11.558c0,3.207,2.508,5.398,5.334,5.398c1.969,0,4.255-1.017,4.985-1.619V251.497z
		 M166.211,242.511c0-2.477-1.461-4.509-4.033-4.509c-2.921,0-4.128,2.413-4.35,4.509H166.211z"/>
	<path d="M173.385,235.97h2.794v2.509h0.063c0.794-1.684,2.509-2.89,4.223-2.89c0.889,0,1.334,0.095,1.969,0.222v2.668
		c-0.54-0.223-1.143-0.286-1.651-0.286c-2.667,0-4.414,2.54-4.414,6.604v7.367h-2.985V235.97z"/>
	<path d="M192.085,230h3.493l5.303,18.988h0.063L205.676,230h4.509l4.795,18.988h0.063L220.346,230h3.366l-6.827,22.164h-4.096
		l-4.826-19.37h-0.063l-4.858,19.37h-4.255L192.085,230z"/>
	<path d="M229.869,232.35h-3.366v-3.365h3.366V232.35z M226.693,235.97h2.985v16.194h-2.985V235.97z"/>
	<path d="M233.932,248.988c1.175,0.763,2.858,1.144,3.715,1.144c1.365,0,3.048-0.571,3.048-2.318c0-2.953-7.018-2.698-7.018-7.239
		c0-3.366,2.509-4.985,5.716-4.985c1.397,0,2.54,0.285,3.715,0.635l-0.254,2.604c-0.667-0.412-2.445-0.825-3.144-0.825
		c-1.524,0-2.858,0.635-2.858,1.969c0,3.303,7.018,2.35,7.018,7.525c0,3.461-2.763,5.049-5.652,5.049
		c-1.524,0-3.081-0.158-4.446-0.889L233.932,248.988z"/>
	<path d="M246.282,248.988c1.175,0.763,2.858,1.144,3.715,1.144c1.365,0,3.048-0.571,3.048-2.318c0-2.953-7.018-2.698-7.018-7.239
		c0-3.366,2.509-4.985,5.716-4.985c1.397,0,2.54,0.285,3.715,0.635l-0.254,2.604c-0.667-0.412-2.445-0.825-3.144-0.825
		c-1.524,0-2.858,0.635-2.858,1.969c0,3.303,7.018,2.35,7.018,7.525c0,3.461-2.763,5.049-5.652,5.049
		c-1.524,0-3.08-0.158-4.446-0.889L246.282,248.988z"/>
	<path d="M272.255,251.497c-1.143,0.413-2.445,1.048-5.112,1.048c-5.748,0-8.383-3.493-8.383-8.764c0-4.795,3.017-8.192,7.589-8.192
		c5.398,0,7.145,3.938,7.145,9.145h-11.558c0,3.207,2.508,5.398,5.334,5.398c1.969,0,4.255-1.017,4.985-1.619V251.497z
		 M270.318,242.511c0-2.477-1.461-4.509-4.033-4.509c-2.921,0-4.128,2.413-4.35,4.509H270.318z"/>
	<path d="M277.492,235.97h2.89v2.572h0.063c0.89-1.842,3.049-2.953,5.303-2.953c4.191,0,6.065,2.604,6.065,6.954v9.621h-2.985
		v-8.383c0-3.778-0.825-5.62-3.429-5.779c-3.398,0-4.922,2.73-4.922,6.668v7.494h-2.985V235.97z"/>
	<path d="M295.686,248.988c1.175,0.763,2.857,1.144,3.715,1.144c1.365,0,3.048-0.571,3.048-2.318c0-2.953-7.017-2.698-7.017-7.239
		c0-3.366,2.508-4.985,5.715-4.985c1.397,0,2.541,0.285,3.716,0.635l-0.254,2.604c-0.667-0.412-2.445-0.825-3.144-0.825
		c-1.524,0-2.858,0.635-2.858,1.969c0,3.303,7.018,2.35,7.018,7.525c0,3.461-2.763,5.049-5.652,5.049
		c-1.523,0-3.08-0.158-4.445-0.889L295.686,248.988z"/>
	<path d="M319.53,238.7c-1.143-0.476-2.286-0.698-3.238-0.698c-3.334,0-5.208,2.984-5.208,6.065c0,2.889,1.556,6.064,5.398,6.064
		c1.016,0,2.286-0.317,3.207-0.921l0.223,2.667c-1.239,0.572-2.668,0.667-3.747,0.667c-4.891,0-8.256-3.842-8.256-8.478
		c0-4.922,3.302-8.479,8.256-8.479c1.206,0,2.763,0.285,3.619,0.635L319.53,238.7z"/>
	<path d="M323.339,228.349h2.985v9.939h0.063c1.079-1.715,2.953-2.699,5.207-2.699c4.191,0,6.065,2.604,6.065,6.954v9.621h-2.985
		v-8.383c0-3.778-0.825-5.62-3.429-5.779c-3.398,0-4.922,2.73-4.922,6.668v7.494h-2.985V228.349z"/>
	<path d="M343.5,237.113c1.492-0.89,3.271-1.524,5.334-1.524c4.637,0,6.51,2.286,6.51,6.7v6.699c0,1.842,0.063,2.699,0.127,3.176
		h-2.794v-2.096h-0.063c-0.699,0.984-2.287,2.477-5.018,2.477c-3.493,0-5.938-1.524-5.938-5.049c0-4.064,4.445-5.334,7.525-5.334
		c1.175,0,2,0,3.175,0.063c0-2.795-1.016-4.224-4-4.224c-1.684,0-3.493,0.635-4.7,1.651L343.5,237.113z M352.358,244.448
		c-0.635,0-1.27-0.063-1.904-0.063c-1.62,0-5.621,0.254-5.621,3.111c0,1.715,1.651,2.636,3.017,2.636
		c2.953,0,4.509-1.842,4.509-4.255V244.448z"/>
	<path d="M362.328,238.383h-3.811v-2.413h3.811v-1.492c0-3.938,1.016-6.51,5.43-6.51c0.762,0,1.397,0.096,2,0.19l-0.127,2.413
		c-0.349-0.127-0.921-0.19-1.429-0.19c-2.572,0-2.89,1.651-2.89,3.843v1.746h4.287v2.413h-4.287v13.781h-2.984V238.383z"/>
	<path d="M381.347,238.383h-4.287v8.859c0,1.873,1.144,2.89,2.509,2.89c0.921,0,1.588-0.286,2.032-0.571v2.54
		c-0.667,0.19-1.588,0.444-2.54,0.444c-3.08,0-4.985-1.461-4.985-4.699v-9.463h-3.651v-2.413h3.651v-3.747l2.984-0.952v4.699h4.287
		V238.383z"/>
</g>
<g>
	<path d="M75.091,154.133c-8.33,2.04-17,3.57-25.67,3.57c-21.08,0-39.95-8.5-39.95-39.1c0-23.97,16.83-51.68,47.43-51.68
		c20.91,0,32.64,12.58,32.64,33.15c0,5.78-0.68,10.71-1.53,15.81h-61.03c-0.34,1.871-0.51,3.57-0.51,5.44
		c0,18.19,11.22,23.46,26.69,23.46c7.99,0,16.66-2.04,24.479-5.27L75.091,154.133z M73.051,103.983c0.34-2.55,0.51-4.59,0.51-6.63
		c0-10.2-6.29-17.51-18.36-17.51c-13.09,0-23.12,11.39-26.52,24.14H73.051z"/>
</g>
<g>
	<path stroke="#000000" d="M226.389,68.181h12.579l-18.682,86.931h-12.579L226.389,68.181z"/>
	<path stroke="#000000" d="M298.622,81.88c-4.11-2.491-9.216-4.234-15.816-4.234c-8.221,0-17.188,3.238-17.188,13.575
		c0,14.571,29.642,14.696,29.642,37.487c0,13.077-9.092,27.897-30.015,27.897c-10.088,0-17.312-2.241-24.286-4.981l3.985-11.458
		c5.106,3.238,12.205,5.48,18.308,5.48c13.201,0,18.806-8.22,18.806-15.443c0-17.685-29.641-14.572-29.641-38.733
		c0-15.817,14.447-24.784,28.77-24.784c7.223,0,14.322,1.37,20.923,4.11L298.622,81.88z"/>
	<path stroke="#000000" d="M380.444,79.141h-27.025l-16.315,75.971h-12.578l16.314-75.971h-27.025l2.366-10.96h66.63L380.444,79.141
		z"/>
</g>
<g>
	<path fill="#ED1C24" d="M161.685,111.775l29.583,58.211h-29.583l-19.563-42.228l-43.897,48.907l-20.279-13.121l52.725-54.872
		l-28.39-57.257h28.39l19.085,41.75l43.182-48.191l19.801,12.644L161.685,111.775z"/>
</g>
<circle fill="#BCBEC0" cx="158.47" cy="31.685" r="16.18"/>
</svg>
