<?xml version="1.0" encoding="utf-8"?>
<!-- Generator: Adobe Illustrator 16.0.0, SVG Export Plug-In . SVG Version: 6.00 Build 0)  -->
<!DOCTYPE svg PUBLIC "-//W3C//DTD SVG 1.1//EN" "http://www.w3.org/Graphics/SVG/1.1/DTD/svg11.dtd">
<svg version="1.1" id="Ebene_1" xmlns="http://www.w3.org/2000/svg" xmlns:xlink="http://www.w3.org/1999/xlink" x="0px" y="0px"
	 width="55.275px" height="60.945px" viewBox="0 0 55.275 60.945" enable-background="new 0 0 55.275 60.945" xml:space="preserve">
<g>
	<path d="M2.983,47.749v-6.831h4.318v0.807H3.902v1.872h3.166v0.808H3.902v2.537h3.399v0.808H2.983z"/>
	<path d="M12.276,47.749h-0.871v-0.57c-0.27,0.233-0.524,0.409-0.765,0.531c-0.243,0.12-0.512,0.181-0.809,0.181
		c-0.226,0-0.438-0.037-0.637-0.111c-0.2-0.071-0.373-0.188-0.522-0.347c-0.148-0.159-0.263-0.359-0.346-0.601
		c-0.082-0.242-0.122-0.536-0.122-0.882v-3.326h0.872v2.918c0,0.271,0.01,0.497,0.029,0.677c0.021,0.179,0.065,0.335,0.138,0.47
		c0.07,0.132,0.168,0.228,0.289,0.289c0.122,0.062,0.297,0.092,0.526,0.092c0.214,0,0.44-0.06,0.682-0.179s0.462-0.266,0.664-0.44
		v-3.826h0.871V47.749z"/>
	<path d="M16.282,43.55h-0.047c-0.064-0.02-0.132-0.03-0.205-0.034c-0.073-0.005-0.161-0.008-0.262-0.008
		c-0.236,0-0.47,0.051-0.701,0.152s-0.452,0.25-0.658,0.448v3.64h-0.872v-5.125h0.872v0.762c0.318-0.278,0.596-0.476,0.832-0.588
		c0.237-0.116,0.467-0.174,0.688-0.174c0.09,0,0.158,0.002,0.202,0.007c0.045,0.005,0.095,0.011,0.15,0.021V43.55z"/>
	<path d="M21.175,45.188c0,0.863-0.21,1.528-0.631,1.998c-0.421,0.471-0.98,0.704-1.679,0.704c-0.72,0-1.286-0.241-1.699-0.727
		c-0.413-0.484-0.619-1.145-0.619-1.976c0-0.856,0.212-1.521,0.637-1.995c0.426-0.474,0.986-0.711,1.682-0.711
		c0.698,0,1.258,0.235,1.679,0.709C20.965,43.664,21.175,44.33,21.175,45.188z M20.275,45.188c0-0.663-0.123-1.156-0.366-1.479
		c-0.245-0.322-0.593-0.483-1.044-0.483c-0.455,0-0.804,0.161-1.051,0.483c-0.245,0.323-0.368,0.816-0.368,1.479
		c0,0.643,0.123,1.129,0.368,1.462c0.247,0.331,0.596,0.496,1.051,0.496c0.448,0,0.795-0.162,1.04-0.487
		C20.152,46.333,20.275,45.842,20.275,45.188z"/>
	<path d="M26.414,45.049c0,0.855-0.207,1.534-0.619,2.041c-0.413,0.506-0.935,0.759-1.564,0.759c-0.257,0-0.484-0.029-0.683-0.088
		c-0.196-0.058-0.399-0.148-0.607-0.271v2.146h-0.871v-7.014h0.871v0.538c0.216-0.193,0.458-0.354,0.722-0.485
		c0.265-0.129,0.552-0.194,0.865-0.194c0.594,0,1.055,0.232,1.388,0.697S26.414,44.268,26.414,45.049z M25.515,45.147
		c0-0.584-0.094-1.038-0.282-1.359c-0.189-0.322-0.495-0.484-0.919-0.484c-0.248,0-0.487,0.054-0.717,0.163
		c-0.229,0.108-0.448,0.248-0.656,0.419v2.904c0.229,0.109,0.425,0.184,0.588,0.225c0.162,0.039,0.348,0.061,0.558,0.061
		c0.451,0,0.803-0.164,1.053-0.492C25.39,46.254,25.515,45.777,25.515,45.147z"/>
	<path d="M30.212,47.201c-0.072,0.053-0.166,0.127-0.286,0.221c-0.118,0.091-0.233,0.166-0.345,0.221
		c-0.154,0.08-0.304,0.141-0.447,0.184c-0.145,0.043-0.345,0.064-0.605,0.064c-0.214,0-0.416-0.039-0.607-0.119
		c-0.191-0.079-0.36-0.19-0.505-0.335c-0.14-0.141-0.251-0.314-0.335-0.521c-0.083-0.206-0.124-0.423-0.124-0.655
		c0-0.354,0.076-0.655,0.227-0.905c0.151-0.249,0.391-0.446,0.72-0.594c0.29-0.131,0.633-0.222,1.028-0.272s0.823-0.087,1.28-0.112
		V44.21c0-0.202-0.031-0.364-0.094-0.487c-0.062-0.124-0.147-0.222-0.259-0.287c-0.11-0.07-0.247-0.117-0.408-0.14
		c-0.16-0.022-0.326-0.034-0.496-0.034c-0.201,0-0.438,0.029-0.709,0.088c-0.272,0.061-0.546,0.147-0.816,0.26h-0.052v-0.875
		c0.161-0.047,0.392-0.097,0.691-0.151S28.666,42.5,28.96,42.5c0.355,0,0.655,0.028,0.899,0.083s0.464,0.153,0.658,0.298
		c0.189,0.14,0.329,0.322,0.423,0.545c0.092,0.224,0.138,0.496,0.138,0.816v3.506h-0.866V47.201z M28.645,41.766h-0.933v-0.895
		h0.933V41.766z M30.212,46.487v-1.423c-0.208,0.019-0.469,0.044-0.786,0.076c-0.316,0.032-0.572,0.077-0.768,0.136
		c-0.231,0.069-0.424,0.179-0.574,0.323c-0.151,0.145-0.228,0.347-0.228,0.608c0,0.293,0.084,0.515,0.251,0.664
		c0.166,0.15,0.41,0.225,0.732,0.225c0.274,0,0.523-0.059,0.745-0.178C29.809,46.802,30.018,46.658,30.212,46.487z M30.559,41.766
		h-0.931v-0.895h0.931V41.766z"/>
	<path d="M33.253,41.766h-0.992v-0.895h0.992V41.766z M33.192,47.749h-0.871v-5.125h0.871V47.749z"/>
	<path d="M35.874,47.873c-0.347,0-0.67-0.047-0.972-0.138c-0.302-0.093-0.551-0.19-0.75-0.294v-0.968h0.047
		c0.075,0.059,0.162,0.122,0.263,0.192c0.1,0.07,0.233,0.145,0.401,0.22c0.147,0.066,0.311,0.128,0.488,0.18
		c0.178,0.053,0.362,0.078,0.554,0.078c0.14,0,0.288-0.016,0.446-0.049c0.156-0.031,0.275-0.072,0.353-0.121
		c0.107-0.07,0.186-0.146,0.234-0.225c0.048-0.079,0.071-0.2,0.071-0.357c0-0.206-0.057-0.36-0.169-0.463
		c-0.112-0.105-0.313-0.192-0.602-0.264c-0.11-0.027-0.257-0.058-0.436-0.095c-0.18-0.037-0.345-0.078-0.496-0.119
		c-0.396-0.115-0.683-0.289-0.862-0.525c-0.18-0.237-0.269-0.523-0.269-0.86c0-0.462,0.177-0.838,0.528-1.13
		c0.353-0.29,0.82-0.435,1.405-0.435c0.287,0,0.577,0.036,0.867,0.104c0.29,0.071,0.534,0.16,0.732,0.267v0.923h-0.046
		c-0.224-0.176-0.471-0.312-0.745-0.413c-0.273-0.102-0.549-0.152-0.827-0.152c-0.288,0-0.53,0.06-0.729,0.18
		c-0.198,0.118-0.296,0.3-0.296,0.541c0,0.214,0.058,0.374,0.176,0.479c0.117,0.105,0.306,0.193,0.565,0.261
		c0.13,0.031,0.274,0.064,0.434,0.098c0.159,0.031,0.326,0.07,0.504,0.113c0.382,0.096,0.671,0.251,0.864,0.472
		c0.192,0.221,0.29,0.521,0.29,0.899c0,0.222-0.045,0.428-0.133,0.626c-0.088,0.197-0.218,0.366-0.387,0.507
		c-0.186,0.153-0.395,0.271-0.628,0.349C36.519,47.832,36.226,47.873,35.874,47.873z"/>
	<path d="M40.77,47.862c-0.354,0-0.681-0.054-0.978-0.161c-0.297-0.109-0.553-0.273-0.766-0.494
		c-0.213-0.22-0.379-0.497-0.495-0.833c-0.119-0.335-0.178-0.729-0.178-1.18c0-0.452,0.062-0.839,0.184-1.166
		s0.286-0.602,0.489-0.826c0.204-0.224,0.459-0.395,0.764-0.516c0.305-0.12,0.631-0.182,0.979-0.182c0.285,0,0.56,0.04,0.824,0.119
		c0.264,0.079,0.5,0.172,0.706,0.274v0.969h-0.05c-0.063-0.052-0.143-0.111-0.24-0.178c-0.097-0.068-0.215-0.137-0.354-0.206
		c-0.121-0.063-0.264-0.115-0.427-0.161c-0.164-0.048-0.321-0.069-0.474-0.069c-0.451,0-0.813,0.17-1.087,0.507
		c-0.273,0.339-0.411,0.815-0.411,1.435c0,0.604,0.133,1.076,0.396,1.414c0.265,0.338,0.632,0.508,1.102,0.508
		c0.285,0,0.556-0.059,0.813-0.175s0.482-0.266,0.682-0.448h0.05v0.965c-0.086,0.041-0.194,0.09-0.325,0.146
		c-0.128,0.056-0.247,0.1-0.352,0.125c-0.148,0.043-0.28,0.075-0.398,0.099S40.956,47.862,40.77,47.862z"/>
	<path d="M47.163,47.749h-0.871V44.83c0-0.235-0.011-0.453-0.035-0.658c-0.022-0.203-0.066-0.366-0.131-0.488
		c-0.072-0.127-0.171-0.224-0.297-0.286c-0.128-0.063-0.3-0.094-0.519-0.094c-0.218,0-0.44,0.057-0.671,0.172
		c-0.231,0.114-0.456,0.265-0.675,0.447v3.826h-0.872V40.61h0.872v2.583c0.26-0.229,0.516-0.405,0.769-0.528
		c0.256-0.12,0.522-0.183,0.804-0.183c0.51,0,0.908,0.165,1.196,0.498c0.287,0.331,0.43,0.813,0.43,1.442V47.749z"/>
	<path d="M50.637,47.867c-0.824,0-1.466-0.229-1.922-0.691c-0.455-0.459-0.684-1.113-0.684-1.959c0-0.835,0.221-1.5,0.662-1.993
		c0.442-0.495,1.021-0.741,1.735-0.741c0.321,0,0.605,0.047,0.854,0.138c0.247,0.092,0.464,0.235,0.649,0.431
		c0.185,0.195,0.327,0.437,0.426,0.719c0.1,0.283,0.148,0.629,0.148,1.038v0.469h-3.589c0,0.596,0.15,1.051,0.454,1.366
		c0.303,0.315,0.723,0.474,1.257,0.474c0.191,0,0.38-0.021,0.563-0.064s0.351-0.1,0.499-0.166c0.157-0.069,0.29-0.138,0.398-0.204
		s0.197-0.128,0.269-0.186h0.051v0.94c-0.102,0.039-0.229,0.09-0.38,0.148c-0.151,0.061-0.288,0.107-0.408,0.142
		c-0.17,0.045-0.323,0.08-0.462,0.104C51.021,47.855,50.847,47.867,50.637,47.867z M51.657,44.616
		c-0.006-0.233-0.033-0.434-0.084-0.602c-0.049-0.169-0.12-0.31-0.212-0.427c-0.103-0.129-0.233-0.227-0.393-0.294
		c-0.159-0.066-0.356-0.101-0.591-0.101c-0.231,0-0.429,0.034-0.592,0.104c-0.162,0.068-0.31,0.169-0.442,0.3
		c-0.13,0.134-0.229,0.283-0.298,0.448c-0.067,0.163-0.11,0.354-0.129,0.571H51.657z"/>
	<path d="M5.395,58.257c-0.405,0-0.759-0.054-1.063-0.159c-0.303-0.104-0.561-0.262-0.774-0.47c-0.24-0.238-0.41-0.523-0.51-0.856
		c-0.098-0.331-0.148-0.74-0.148-1.226v-4.263h0.919v4.263c0,0.314,0.02,0.579,0.061,0.795c0.039,0.217,0.118,0.409,0.235,0.58
		c0.125,0.184,0.292,0.323,0.504,0.418s0.471,0.144,0.776,0.144c0.287,0,0.542-0.049,0.766-0.144
		c0.223-0.095,0.396-0.234,0.519-0.418c0.114-0.173,0.192-0.366,0.235-0.577c0.041-0.211,0.063-0.469,0.063-0.775v-4.285h0.918
		v4.263c0,0.473-0.049,0.881-0.146,1.22s-0.268,0.627-0.513,0.862c-0.22,0.21-0.476,0.369-0.768,0.473S5.817,58.257,5.395,58.257z"
		/>
	<path d="M13.212,58.115H12.34v-2.918c0-0.235-0.011-0.453-0.034-0.658c-0.022-0.204-0.067-0.366-0.132-0.488
		c-0.071-0.128-0.17-0.224-0.297-0.287c-0.127-0.062-0.301-0.094-0.52-0.094c-0.216,0-0.438,0.058-0.67,0.172
		c-0.23,0.115-0.455,0.266-0.674,0.448v3.825H9.141v-5.124h0.873v0.568c0.259-0.229,0.516-0.404,0.769-0.527
		c0.254-0.121,0.521-0.184,0.802-0.184c0.511,0,0.909,0.166,1.197,0.499c0.288,0.331,0.431,0.812,0.431,1.442V58.115z"/>
	<path d="M15.387,52.132h-0.992v-0.894h0.992V52.132z M15.326,58.115h-0.871v-5.124h0.871V58.115z"/>
	<path d="M20.869,55.555c0,0.862-0.211,1.528-0.631,1.997c-0.422,0.471-0.981,0.705-1.68,0.705c-0.72,0-1.287-0.242-1.699-0.728
		c-0.413-0.483-0.619-1.144-0.619-1.975c0-0.856,0.213-1.521,0.638-1.996c0.425-0.473,0.985-0.711,1.681-0.711
		c0.698,0,1.258,0.236,1.68,0.708C20.658,54.031,20.869,54.696,20.869,55.555z M19.969,55.555c0-0.664-0.122-1.156-0.367-1.479
		c-0.243-0.323-0.592-0.483-1.043-0.483c-0.454,0-0.805,0.16-1.05,0.483s-0.369,0.815-0.369,1.479c0,0.643,0.124,1.129,0.369,1.462
		c0.245,0.331,0.596,0.496,1.05,0.496c0.448,0,0.796-0.163,1.041-0.488C19.846,56.699,19.969,56.209,19.969,55.555z"/>
	<path d="M25.834,58.115h-0.872v-2.918c0-0.235-0.012-0.453-0.034-0.658c-0.022-0.204-0.067-0.366-0.132-0.488
		c-0.072-0.128-0.17-0.224-0.297-0.287c-0.128-0.062-0.3-0.094-0.519-0.094c-0.218,0-0.44,0.058-0.671,0.172
		c-0.23,0.115-0.456,0.266-0.675,0.448v3.825h-0.872v-5.124h0.872v0.568c0.259-0.229,0.516-0.404,0.77-0.527
		c0.254-0.121,0.521-0.184,0.802-0.184c0.51,0,0.909,0.166,1.197,0.499c0.287,0.331,0.431,0.812,0.431,1.442V58.115z"/>
</g>
<polygon fill="#034EA2" points="2.835,2.835 52.441,2.835 52.441,35.907 2.835,35.907 2.835,2.835 "/>
<polygon fill="#FFF200" points="18.015,11.668 18.425,12.84 19.673,12.865 18.68,13.615 19.04,14.804 18.015,14.095 16.991,14.804 
	17.353,13.615 16.358,12.865 17.605,12.84 18.015,11.668 "/>
<polygon fill="#FFF200" points="18.015,11.668 18.425,12.84 19.673,12.865 18.68,13.615 19.04,14.804 18.015,14.095 16.991,14.804 
	17.353,13.615 16.358,12.865 17.605,12.84 18.015,11.668 "/>
<polygon fill="#FFF200" points="22.072,7.633 22.481,8.805 23.731,8.831 22.736,9.58 23.098,10.768 22.072,10.059 21.049,10.768 
	21.411,9.58 20.415,8.831 21.664,8.805 22.072,7.633 "/>
<polygon fill="#FFF200" points="22.072,7.633 22.481,8.805 23.731,8.831 22.736,9.58 23.098,10.768 22.072,10.059 21.049,10.768 
	21.411,9.58 20.415,8.831 21.664,8.805 22.072,7.633 "/>
<polygon fill="#FFF200" points="27.664,6.166 28.073,7.338 29.321,7.363 28.326,8.113 28.688,9.301 27.664,8.592 26.64,9.301 
	27.001,8.113 26.007,7.363 27.254,7.338 27.664,6.166 "/>
<polygon fill="#FFF200" points="27.664,6.166 28.073,7.338 29.321,7.363 28.326,8.113 28.688,9.301 27.664,8.592 26.64,9.301 
	27.001,8.113 26.007,7.363 27.254,7.338 27.664,6.166 "/>
<polygon fill="#FFF200" points="33.201,7.633 33.611,8.805 34.859,8.831 33.865,9.58 34.228,10.768 33.201,10.059 32.179,10.768 
	32.539,9.58 31.545,8.831 32.792,8.805 33.201,7.633 "/>
<polygon fill="#FFF200" points="33.201,7.633 33.611,8.805 34.859,8.831 33.865,9.58 34.228,10.768 33.201,10.059 32.179,10.768 
	32.539,9.58 31.545,8.831 32.792,8.805 33.201,7.633 "/>
<polygon fill="#FFF200" points="37.26,11.668 37.671,12.84 38.917,12.865 37.923,13.615 38.285,14.804 37.26,14.095 36.236,14.804 
	36.597,13.615 35.604,12.865 36.85,12.84 37.26,11.668 "/>
<polygon fill="#FFF200" points="37.26,11.668 37.671,12.84 38.917,12.865 37.923,13.615 38.285,14.804 37.26,14.095 36.236,14.804 
	36.597,13.615 35.604,12.865 36.85,12.84 37.26,11.668 "/>
<polygon fill="#FFF200" points="38.736,17.384 39.145,18.557 40.394,18.582 39.397,19.332 39.76,20.52 38.736,19.812 37.711,20.52 
	38.072,19.333 37.077,18.582 38.324,18.557 38.736,17.384 "/>
<polygon fill="#FFF200" points="38.736,17.384 39.145,18.557 40.394,18.582 39.397,19.332 39.76,20.52 38.736,19.812 37.711,20.52 
	38.072,19.333 37.077,18.582 38.324,18.557 38.736,17.384 "/>
<polygon fill="#FFF200" points="37.26,22.857 37.671,24.028 38.917,24.054 37.923,24.804 38.285,25.992 37.26,25.283 36.236,25.992 
	36.597,24.804 35.604,24.054 36.85,24.028 37.26,22.857 "/>
<polygon fill="#FFF200" points="37.26,22.857 37.671,24.028 38.917,24.054 37.923,24.804 38.285,25.992 37.26,25.283 36.236,25.992 
	36.597,24.804 35.604,24.054 36.85,24.028 37.26,22.857 "/>
<polygon fill="#FFF200" points="33.201,27.044 33.611,28.216 34.859,28.242 33.865,28.993 34.228,30.179 33.201,29.471 
	32.179,30.179 32.539,28.993 31.545,28.242 32.792,28.216 33.201,27.044 "/>
<polygon fill="#FFF200" points="33.201,27.044 33.611,28.216 34.859,28.242 33.865,28.993 34.228,30.179 33.201,29.471 
	32.179,30.179 32.539,28.993 31.545,28.242 32.792,28.216 33.201,27.044 "/>
<polygon fill="#FFF200" points="27.664,28.543 28.073,29.714 29.321,29.74 28.326,30.49 28.688,31.677 27.664,30.969 26.64,31.677 
	27.001,30.49 26.007,29.74 27.254,29.714 27.664,28.543 "/>
<polygon fill="#FFF200" points="27.664,28.543 28.073,29.714 29.321,29.74 28.326,30.49 28.688,31.677 27.664,30.969 26.64,31.677 
	27.001,30.49 26.007,29.74 27.254,29.714 27.664,28.543 "/>
<polygon fill="#FFF200" points="22.072,27.044 22.481,28.216 23.731,28.242 22.736,28.993 23.098,30.179 22.072,29.471 
	21.049,30.179 21.411,28.993 20.415,28.242 21.664,28.216 22.072,27.044 "/>
<polygon fill="#FFF200" points="22.072,27.044 22.481,28.216 23.731,28.242 22.736,28.993 23.098,30.179 22.072,29.471 
	21.049,30.179 21.411,28.993 20.415,28.242 21.664,28.216 22.072,27.044 "/>
<polygon fill="#FFF200" points="18.015,22.857 18.425,24.028 19.673,24.054 18.68,24.804 19.04,25.992 18.015,25.283 16.991,25.992 
	17.353,24.804 16.358,24.054 17.605,24.028 18.015,22.857 "/>
<polygon fill="#FFF200" points="18.015,22.857 18.425,24.028 19.673,24.054 18.68,24.804 19.04,25.992 18.015,25.283 16.991,25.992 
	17.353,24.804 16.358,24.054 17.605,24.028 18.015,22.857 "/>
<polygon fill="#FFF200" points="16.54,17.384 16.95,18.557 18.197,18.582 17.203,19.332 17.563,20.52 16.54,19.812 15.515,20.52 
	15.876,19.333 14.882,18.582 16.129,18.557 16.54,17.384 "/>
<polygon fill="#FFF200" points="16.54,17.384 16.95,18.557 18.197,18.582 17.203,19.332 17.563,20.52 16.54,19.812 15.515,20.52 
	15.876,19.333 14.882,18.582 16.129,18.557 16.54,17.384 "/>
</svg>
