<?xml version="1.0" encoding="utf-8"?>
<!-- Generator: Adobe Illustrator 16.0.0, SVG Export Plug-In . SVG Version: 6.00 Build 0)  -->
<!DOCTYPE svg PUBLIC "-//W3C//DTD SVG 1.1//EN" "http://www.w3.org/Graphics/SVG/1.1/DTD/svg11.dtd">
<svg version="1.1" xmlns="http://www.w3.org/2000/svg" xmlns:xlink="http://www.w3.org/1999/xlink" x="0px" y="0px"
	 width="170.078px" height="140.333px" viewBox="0 0 170.078 140.333" enable-background="new 0 0 170.078 140.333"
	 xml:space="preserve">
<g id="Ebene_5">
	<polygon fill="#F5CE00" points="51.275,81.033 53.086,81.033 53.086,105.176 48.86,105.176 48.86,81.033 	"/>
	<polygon fill="#ED1C24" points="51.275,56.765 53.086,56.765 53.086,81.033 48.86,81.033 48.86,56.765 	"/>
	<g>
		<path d="M37.865,41.18c1.235,1.954,2.203,1.922,3.664,1.922c-1.209-0.927-2.008-2.113-2.389-2.719l-2.259-3.612
			c-0.22-1.116-0.797-2.159-1.661-2.935c0.291-0.11,0.531-0.226,0.678-0.336c-1.475,0-2.936-0.749-3.74-0.749
			c-0.518,0-0.85,0.31-0.85,0.718c0.034,0.454,0.502,0.917,1.367,0.917c0.196,0,0.446-0.026,0.722-0.071
			c0.468,0.653,0.847,1.243,0.847,2.085c0,1.582-1.892,2.814-3.8,2.814c-0.107,0-0.21-0.004-0.318-0.013
			c-0.173-0.391-0.749-1.05-0.749-1.799c0-1.256,0.82-2.282,0.82-3.527c0-0.773-0.377-1.252-0.522-1.452
			c0.235-0.218,0.492-0.486,0.551-0.668c-0.136,0.058-0.297,0.067-0.534,0.067c-0.915,0-1.661-0.238-2.388-0.238
			c-0.415,0-0.527,0.127-0.527,0.25c0,0.045,0.007,0.09,0.019,0.113c-0.155-0.061-0.3-0.101-0.473-0.133
			c-0.214-0.041-0.446-0.061-0.692-0.061c-0.883,0-1.198,0.371-1.198,0.688c0,0.269,0.212,0.759,0.452,1.131
			c0.345-0.172,0.758-0.29,0.947-0.29c0.469,0,0.886,0.446,1.107,0.977c-0.316,0.037-0.376,0.051-0.695,0.051
			c-0.86,0-1.446-0.308-1.566-0.308c-0.012,0-0.035,0.006-0.035,0.025c0,0.121,0.244,0.439,0.726,0.615
			c0.632,0.232,1.583,0.329,1.74,0.354c0,0.028-0.161,0.328-0.34,0.385c-0.038,0.013-0.068,0.014-0.112,0.004
			c-0.663-0.13-0.847-0.187-1.686-0.505c-0.026-0.009-0.041,0.006-0.041,0.034c0,0.331,0.859,1.064,1.629,1.344
			c-0.643,0.821-1.446,1.662-1.824,2.942c-0.108,0.008-0.211,0.013-0.319,0.013c-1.909,0-3.8-1.232-3.8-2.814
			c0-0.843,0.379-1.433,0.848-2.085c0.275,0.045,0.525,0.071,0.721,0.071c0.865,0,1.334-0.463,1.368-0.917
			c0-0.409-0.332-0.718-0.851-0.718c-0.804,0-2.264,0.749-3.739,0.749c0.146,0.11,0.387,0.226,0.678,0.336
			c-0.864,0.775-1.44,1.818-1.661,2.935l-2.257,3.612c-0.38,0.606-1.182,1.792-2.391,2.719c1.461,0,2.43,0.032,3.666-1.922
			l1.157-1.852c0.086,0.24,0.191,0.475,0.315,0.704l-2.301,3.684c-0.384,0.61-1.177,1.787-2.391,2.719
			c1.461,0,2.43,0.033,3.665-1.92l1.982-3.173c0.148,0.159,0.305,0.313,0.469,0.46l-2.796,4.477
			c-0.385,0.612-1.174,1.784-2.391,2.715c1.461,0,2.43,0.037,3.665-1.919l2.726-4.365c0.18,0.113,0.364,0.224,0.554,0.329
			l-3.328,5.324c-0.383,0.613-1.173,1.783-2.389,2.716c1.461,0,2.43,0.035,3.665-1.919l3.426-5.484
			c0.202,0.077,0.409,0.152,0.618,0.22l-3.872,6.197c-0.379,0.603-1.186,1.794-2.389,2.717c1.46,0,2.429,0.032,3.664-1.92
			l4.126-6.604c0.042,0.007,0.084,0.014,0.125,0.022c0.112,0.357,0.19,0.689,0.19,1.021c0,2.076-1.361,3.909-2.996,5.324
			c0.104,0.045,0.286,0.061,0.455,0.061c0.337,0,0.555-0.018,0.708-0.045c-0.379,0.861-1.192,1.973-1.604,2.548
			c-0.535-0.097-1.313-0.172-1.823-0.172c-0.533,0-0.594,0.313-0.594,0.59c0,0.484,0.227,0.871,0.491,1.085
			c0.099-0.247,0.298-0.579,1.283-0.579c0.019,0,0.053,0.003,0.099,0.007c-0.288,0.321-1.19,1.048-1.19,1.636
			c0,0.389,0.427,0.971,0.989,0.971c-0.033-0.125-0.029-0.241-0.029-0.327c0-0.477,0.421-1.033,0.776-1.42
			c-0.009,0.115-0.004,0.103-0.004,0.238c0,1.125,0.102,1.641,0.815,1.641c0.35,0,0.592-0.192,0.674-0.25
			c-0.463-0.426-0.487-0.761-0.487-1.392c0.002-0.164,0.002-0.324,0.004-0.546c0.001-0.144,0-0.335-0.024-0.473
			c0.256-0.035,0.359-0.035,0.555-0.035c0,0,1.015-0.08,1.259,0.446c0.275-0.252,0.674-0.608,0.674-1.001
			c0-0.258-0.123-0.552-0.646-0.552c-0.198,0-0.819,0.121-1.339,0.121c0.139-0.311,0.761-1.221,1.301-1.881
			c0.081,0.256,0.208,0.533,0.492,0.76c0.039-0.425,0.288-1.769,0.951-2.554c0.078,0.531,0.182,1.075,0.182,2.224
			c0,2.793-0.672,4.856-2.098,5.25c0.186,0.323,0.578,0.613,0.985,0.613c0.521,0,0.805-0.589,1.096-1.146
			c0.151,0.411,0.567,1.418,0.984,1.418c0.418,0,0.835-1.007,0.986-1.418c0.29,0.557,0.573,1.146,1.095,1.146
			c0.407,0,0.8-0.29,0.986-0.613c-1.426-0.394-2.099-2.457-2.099-5.25c0-1.148,0.104-1.693,0.182-2.224
			c0.664,0.786,0.915,2.129,0.952,2.554c0.284-0.227,0.411-0.504,0.493-0.76c0.539,0.66,1.162,1.57,1.301,1.881
			c-0.521,0-1.142-0.121-1.34-0.121c-0.522,0-0.645,0.294-0.645,0.552c0,0.393,0.399,0.75,0.675,1.001
			c0.243-0.526,1.258-0.446,1.258-0.446c0.196,0,0.299,0,0.555,0.035c-0.024,0.137-0.025,0.329-0.024,0.473
			c0.002,0.222,0.003,0.382,0.004,0.546c0,0.631-0.024,0.966-0.487,1.392c0.083,0.058,0.325,0.25,0.674,0.25
			c0.714,0,0.816-0.517,0.816-1.641c0-0.135,0.004-0.123-0.005-0.238c0.355,0.388,0.776,0.944,0.776,1.42
			c0,0.086,0.004,0.202-0.03,0.327c0.563,0,0.99-0.582,0.99-0.971c0-0.588-0.902-1.315-1.19-1.636
			c0.047-0.004,0.08-0.007,0.099-0.007c0.986,0,1.185,0.332,1.284,0.579c0.263-0.214,0.49-0.601,0.49-1.085
			c0-0.277-0.059-0.59-0.593-0.59c-0.51,0-1.289,0.075-1.824,0.172c-0.412-0.575-1.223-1.687-1.603-2.548
			c0.153,0.027,0.372,0.045,0.708,0.045c0.168,0,0.35-0.016,0.455-0.061c-1.634-1.416-2.996-3.249-2.996-5.324
			c0-0.332,0.079-0.664,0.191-1.021c0.04-0.009,0.083-0.016,0.125-0.022l4.126,6.604c1.235,1.952,2.204,1.92,3.664,1.92
			c-1.202-0.923-2.01-2.114-2.388-2.717l-3.873-6.197c0.21-0.067,0.416-0.143,0.619-0.22l3.426,5.484
			c1.235,1.954,2.203,1.919,3.665,1.919c-1.217-0.933-2.005-2.103-2.39-2.716l-3.328-5.324c0.19-0.105,0.375-0.215,0.553-0.329
			l2.727,4.365c1.236,1.956,2.204,1.919,3.663,1.919c-1.214-0.931-2.004-2.103-2.389-2.715l-2.796-4.477
			c0.164-0.147,0.321-0.301,0.468-0.46l1.983,3.173c1.235,1.953,2.204,1.92,3.665,1.92c-1.215-0.933-2.006-2.109-2.39-2.719
			l-2.302-3.684c0.124-0.229,0.229-0.463,0.314-0.704L37.865,41.18z M19.386,36.939c0-1.376,1-2.465,1.353-2.772
			c0.084,0.021,0.169,0.041,0.254,0.059c-0.375,0.457-1.036,1.223-1.036,2.238c0,2.013,2.152,3.762,4.587,3.762
			c-0.015,0.172-0.024,0.354-0.024,0.54c0,0.297,0.017,0.574,0.046,0.835C21.812,41.583,19.386,39.347,19.386,36.939z
			 M23.118,53.446l-0.015,0.047h0.048c0.773,0,1.15-0.056,1.399-0.092c0.131-0.017,0.225-0.031,0.326-0.031
			c0.2,0,0.353,0.019,0.353,0.264c0,0.167-0.194,0.428-0.381,0.581c-0.286-0.269-0.68-0.322-1.26-0.322
			c-0.271,0-0.625,0.049-0.816,0.076l-0.029,0.003l-0.034,0.004l0.012,0.091c0.022,0.16,0.049,0.359,0.049,0.628l-0.003,0.244
			l-0.002,0.303c0,0.657,0.09,1.031,0.319,1.314c-0.059,0.023-0.155,0.041-0.217,0.041c-0.408,0-0.527-0.178-0.527-1.354
			c0-0.236-0.013-0.458-0.02-0.605l-0.011-0.218l-0.052,0.04c-0.605,0.462-1.231,1.288-1.269,1.905
			c-0.182-0.118-0.379-0.381-0.379-0.584c0-0.338,0.506-0.843,1.092-1.429l0.338-0.337l0.042-0.043l-0.111-0.027
			c-0.126-0.033-0.36-0.091-0.56-0.091c-0.658,0-1.069,0.123-1.323,0.4c-0.091-0.132-0.168-0.439-0.168-0.621
			c0-0.116,0.023-0.199,0.07-0.246c0.058-0.056,0.147-0.056,0.226-0.056h0.016c0.725,0,1.592,0.131,1.929,0.185l0.021,0.005
			l0.013-0.017c0.059-0.079,1.44-1.919,1.8-2.896c0.082-0.03,0.154-0.054,0.298-0.054c0.272,0,0.348,0.184,0.426,0.465
			C23.852,52.069,23.314,52.885,23.118,53.446z M30.572,50.555c0.145,0,0.216,0.024,0.3,0.054c0.359,0.977,1.741,2.817,1.798,2.896
			l0.013,0.017l0.021-0.005c0.338-0.054,1.205-0.185,1.929-0.185h0.016c0.08,0,0.168,0,0.226,0.056
			c0.046,0.046,0.07,0.129,0.07,0.246c0,0.181-0.077,0.489-0.168,0.621c-0.254-0.277-0.665-0.4-1.324-0.4
			c-0.199,0-0.433,0.059-0.559,0.091l-0.053,0.012l-0.059,0.016l0.381,0.381c0.587,0.586,1.094,1.091,1.094,1.429
			c0,0.203-0.198,0.466-0.379,0.584c-0.039-0.618-0.663-1.443-1.27-1.905l-0.053-0.039l-0.009,0.217
			c-0.009,0.147-0.022,0.369-0.022,0.605c0,1.176-0.119,1.354-0.527,1.354c-0.062,0-0.157-0.018-0.217-0.041
			c0.229-0.283,0.32-0.657,0.32-1.314l-0.004-0.303l-0.002-0.244c0-0.269,0.027-0.469,0.049-0.628l0.012-0.091l-0.063-0.008
			c-0.19-0.027-0.545-0.076-0.815-0.076c-0.581,0-0.974,0.054-1.259,0.322c-0.188-0.152-0.382-0.414-0.382-0.581
			c0-0.245,0.153-0.264,0.353-0.264c0.102,0,0.196,0.015,0.327,0.031c0.25,0.036,0.625,0.092,1.398,0.092h0.048l-0.014-0.047
			c-0.197-0.561-0.735-1.377-1.599-2.426C30.225,50.739,30.301,50.555,30.572,50.555z M27.372,34.498
			c-0.086-0.357-0.268-0.725-0.502-1.001c-0.212-0.25-0.563-0.548-1.036-0.548c-0.216,0-0.578,0.101-0.809,0.199
			c-0.086-0.157-0.255-0.535-0.255-0.705c0-0.175,0.296-0.354,0.862-0.354c1.246,0,1.991,0.564,1.991,1.508
			C27.624,33.928,27.492,34.23,27.372,34.498z M27.933,33.271c-0.046-0.267-0.147-0.508-0.303-0.715
			c0.009-0.245,0.109-0.477,0.501-0.286c-0.211,0.218-0.048,0.602-0.048,0.602s0.434-0.202,0.345-0.489
			C29.073,32.539,28.609,33.403,27.933,33.271z M30.356,41.6c0.033-0.271,0.052-0.55,0.052-0.835c0-0.155,0.001-0.336-0.018-0.541
			c2.406-0.034,4.516-1.768,4.516-3.761c0-1.015-0.661-1.781-1.035-2.238c0.084-0.018,0.169-0.037,0.253-0.059
			c0.353,0.307,1.353,1.396,1.353,2.772C35.478,39.331,33.086,41.55,30.356,41.6z"/>
	</g>
	<polygon points="53.086,32.74 53.086,56.885 51.275,56.885 48.86,56.885 48.86,32.74 	"/>
	<path d="M67.386,39.696c0,1.001-0.25,1.71-0.749,2.129c-0.456,0.382-1.188,0.573-2.197,0.573h-2.415v-9.864h2.619
		c0.882,0,1.531,0.191,1.943,0.573c0.414,0.382,0.622,1.014,0.622,1.897c0,0.617-0.105,1.091-0.314,1.418
		c-0.218,0.373-0.604,0.646-1.16,0.818c0.637,0.155,1.078,0.442,1.324,0.86C67.276,38.464,67.386,38.997,67.386,39.696z
		 M66.049,35.072c0-0.609-0.149-1.037-0.449-1.282c-0.264-0.219-0.692-0.328-1.282-0.328h-1.146v3.37h1.215
		C65.494,36.832,66.049,36.245,66.049,35.072z M66.198,39.643c0-0.646-0.137-1.126-0.415-1.439
		c-0.278-0.314-0.735-0.472-1.373-0.472h-1.24v3.738h1.05c0.692,0,1.184-0.114,1.474-0.341
		C66.032,40.865,66.198,40.37,66.198,39.643z"/>
	<path d="M73.853,42.398h-1.078l-0.014-0.873c-0.417,0.655-0.995,0.982-1.733,0.982c-1.226,0-1.841-0.705-1.841-2.115v-4.871h1.077
		v4.394c0,0.564,0.047,0.964,0.137,1.201c0.155,0.391,0.474,0.586,0.954,0.586c0.901,0,1.352-0.668,1.352-2.006v-4.175h1.092v5.362
		C73.799,41.42,73.816,41.925,73.853,42.398z"/>
	<path d="M80.442,42.398h-1.08v-4.393c0-0.591-0.039-0.996-0.122-1.215c-0.154-0.399-0.469-0.6-0.941-0.6
		c-0.464,0-0.823,0.228-1.077,0.682c-0.21,0.392-0.314,0.856-0.314,1.392v4.134h-1.078v-5.375c0-0.61-0.019-1.11-0.054-1.502h1.063
		v0.942c0.382-0.728,0.978-1.092,1.788-1.092c1.209,0,1.814,0.714,1.814,2.142V42.398z"/>
	<path d="M87.004,42.398h-1.049l-0.014-0.791c-0.393,0.6-0.929,0.9-1.611,0.9c-0.883,0-1.486-0.396-1.814-1.187
		c-0.209-0.528-0.313-1.347-0.313-2.457c0-1.045,0.123-1.836,0.368-2.374c0.328-0.746,0.905-1.118,1.732-1.118
		c0.691,0,1.211,0.269,1.555,0.805v-3.643h1.091v8.567C86.949,41.348,86.969,41.78,87.004,42.398z M85.899,39.028
		c0-0.937-0.067-1.605-0.204-2.005c-0.192-0.574-0.558-0.859-1.106-0.859c-0.535,0-0.899,0.3-1.091,0.899
		c-0.128,0.393-0.19,1-0.19,1.829c0,0.901,0.072,1.56,0.218,1.978c0.19,0.564,0.531,0.846,1.023,0.846
		c0.581,0,0.97-0.287,1.161-0.859C85.836,40.483,85.899,39.874,85.899,39.028z"/>
	<path d="M93.414,39.11h-3.6v0.464c0,0.701,0.064,1.205,0.191,1.514c0.18,0.446,0.537,0.668,1.063,0.668
		c0.793,0,1.205-0.504,1.244-1.514h1.061c-0.063,1.527-0.832,2.292-2.305,2.292c-0.955,0-1.607-0.322-1.963-0.968
		c-0.266-0.482-0.398-1.261-0.398-2.333c0-1.219,0.115-2.092,0.342-2.619c0.355-0.828,1.055-1.242,2.104-1.242
		c0.982,0,1.635,0.364,1.963,1.092c0.199,0.454,0.299,1.232,0.299,2.332V39.11z M92.324,38.373c0-0.663-0.045-1.132-0.135-1.405
		c-0.166-0.545-0.516-0.818-1.053-0.818c-0.744,0-1.168,0.446-1.27,1.337c-0.033,0.309-0.053,0.605-0.053,0.886H92.324z"/>
	<path d="M98.939,40.515c0,1.337-0.717,2.005-2.156,2.005c-1.406,0-2.1-0.74-2.07-2.223h1.076c0,0.137,0.004,0.264,0.016,0.382
		c0.061,0.718,0.396,1.077,1.008,1.077c0.689,0,1.037-0.354,1.037-1.064c0-0.381-0.111-0.682-0.326-0.899
		c-0.137-0.146-0.441-0.346-0.916-0.6c-0.645-0.347-1.055-0.601-1.227-0.764c-0.346-0.318-0.518-0.742-0.518-1.27
		c0-0.591,0.195-1.041,0.584-1.351c0.365-0.291,0.852-0.437,1.459-0.437c0.711,0,1.215,0.167,1.516,0.498
		c0.301,0.332,0.461,0.844,0.477,1.535h-1.076c0-0.854-0.324-1.282-0.969-1.282c-0.281,0-0.504,0.087-0.668,0.259
		c-0.164,0.173-0.244,0.4-0.244,0.682c0,0.31,0.131,0.574,0.393,0.793c0.137,0.127,0.461,0.327,0.969,0.6
		c0.555,0.3,0.936,0.554,1.145,0.764C98.777,39.565,98.939,39.997,98.939,40.515z"/>
	<path d="M108.137,42.398h-1.078v-4.625c0-0.5-0.045-0.855-0.139-1.064c-0.135-0.337-0.408-0.506-0.816-0.506
		c-0.809,0-1.215,0.624-1.215,1.87v4.325h-1.076v-4.68c0-0.481-0.041-0.818-0.109-1.009c-0.129-0.337-0.406-0.506-0.832-0.506
		c-0.412,0-0.725,0.201-0.943,0.602c-0.191,0.354-0.285,0.813-0.285,1.378v4.215h-1.078v-5.688c0-0.41-0.02-0.806-0.055-1.188h1.078
		v0.901c0.363-0.701,0.906-1.051,1.623-1.051c0.781,0,1.291,0.35,1.527,1.051c0.398-0.701,0.969-1.051,1.707-1.051
		c0.625,0,1.072,0.205,1.336,0.614c0.236,0.355,0.355,0.932,0.355,1.732V42.398z"/>
	<path d="M111.301,33.844h-1.186v-1.173h1.186V33.844z M111.246,42.398h-1.078v-6.876h1.078V42.398z"/>
	<path d="M117.891,42.398h-1.078v-4.393c0-0.591-0.041-0.996-0.125-1.215c-0.152-0.399-0.467-0.6-0.941-0.6
		c-0.461,0-0.82,0.228-1.076,0.682c-0.211,0.392-0.314,0.856-0.314,1.392v4.134h-1.076v-5.375c0-0.61-0.02-1.11-0.057-1.502h1.064
		v0.942c0.383-0.728,0.98-1.092,1.787-1.092c1.211,0,1.816,0.714,1.816,2.142V42.398z"/>
	<path d="M121.055,33.844h-1.186v-1.173h1.186V33.844z M121,42.398h-1.076v-6.876H121V42.398z"/>
	<path d="M126.842,40.515c0,1.337-0.723,2.005-2.158,2.005c-1.41,0-2.102-0.74-2.074-2.223h1.08c0,0.137,0.004,0.264,0.012,0.382
		c0.063,0.718,0.4,1.077,1.01,1.077c0.691,0,1.037-0.354,1.037-1.064c0-0.381-0.109-0.682-0.328-0.899
		c-0.137-0.146-0.439-0.346-0.912-0.6c-0.646-0.347-1.057-0.601-1.229-0.764c-0.348-0.318-0.52-0.742-0.52-1.27
		c0-0.591,0.195-1.041,0.588-1.351c0.361-0.291,0.852-0.437,1.459-0.437c0.709,0,1.215,0.167,1.514,0.498
		c0.301,0.332,0.461,0.844,0.479,1.535h-1.078c0-0.854-0.322-1.282-0.969-1.282c-0.281,0-0.504,0.087-0.67,0.259
		c-0.162,0.173-0.242,0.4-0.242,0.682c0,0.31,0.131,0.574,0.395,0.793c0.135,0.127,0.459,0.327,0.969,0.6
		c0.555,0.3,0.936,0.554,1.145,0.764C126.676,39.565,126.842,39.997,126.842,40.515z"/>
	<path d="M131.123,42.398c-0.336,0.037-0.602,0.055-0.793,0.055c-0.615,0-1.041-0.132-1.268-0.396
		c-0.189-0.237-0.285-0.668-0.285-1.296v-4.448h-1.023v-0.792h1.023v-1.269l1.078-0.478v1.746h1.227v0.792h-1.227v4.325
		c0,0.383,0.055,0.639,0.162,0.771s0.313,0.198,0.613,0.198c0.057,0,0.217-0.018,0.492-0.055V42.398z"/>
	<path d="M136.908,39.11h-3.604v0.464c0,0.701,0.064,1.205,0.191,1.514c0.184,0.446,0.537,0.668,1.064,0.668
		c0.793,0,1.207-0.504,1.24-1.514h1.064c-0.063,1.527-0.832,2.292-2.305,2.292c-0.953,0-1.609-0.322-1.963-0.968
		c-0.266-0.482-0.396-1.261-0.396-2.333c0-1.219,0.113-2.092,0.34-2.619c0.355-0.828,1.057-1.242,2.102-1.242
		c0.982,0,1.637,0.364,1.963,1.092c0.201,0.454,0.303,1.232,0.303,2.332V39.11z M135.816,38.373c0-0.663-0.045-1.132-0.137-1.405
		c-0.162-0.545-0.516-0.818-1.049-0.818c-0.748,0-1.17,0.446-1.27,1.337c-0.037,0.309-0.057,0.605-0.057,0.886H135.816z"/>
	<path d="M141.492,36.423c-0.111-0.019-0.188-0.028-0.232-0.028c-0.52,0-0.906,0.16-1.166,0.477c-0.26,0.319-0.389,0.742-0.389,1.27
		v4.256h-1.094v-5.62c0-0.465-0.014-0.882-0.039-1.256h1.064v0.901c0.373-0.691,0.955-1.038,1.744-1.038
		C141.453,35.385,141.492,35.732,141.492,36.423z"/>
	<path d="M143.92,33.844h-1.188v-1.173h1.188V33.844z M143.863,42.398h-1.078v-6.876h1.078V42.398z"/>
	<path d="M150.563,42.398h-1.076l-0.016-0.873c-0.416,0.655-0.994,0.982-1.729,0.982c-1.23,0-1.846-0.705-1.846-2.115v-4.871h1.08
		v4.394c0,0.564,0.045,0.964,0.135,1.201c0.154,0.391,0.475,0.586,0.955,0.586c0.9,0,1.352-0.668,1.352-2.006v-4.175h1.092v5.362
		C150.51,41.42,150.527,41.925,150.563,42.398z"/>
	<path d="M160.113,42.398h-1.078v-4.625c0-0.5-0.045-0.855-0.137-1.064c-0.137-0.337-0.408-0.506-0.816-0.506
		c-0.811,0-1.215,0.624-1.215,1.87v4.325h-1.078v-4.68c0-0.481-0.037-0.818-0.109-1.009c-0.127-0.337-0.406-0.506-0.832-0.506
		c-0.41,0-0.725,0.201-0.941,0.602c-0.189,0.354-0.287,0.813-0.287,1.378v4.215h-1.078v-5.688c0-0.41-0.02-0.806-0.053-1.188h1.076
		v0.901c0.363-0.701,0.906-1.051,1.623-1.051c0.783,0,1.291,0.35,1.527,1.051c0.4-0.701,0.969-1.051,1.707-1.051
		c0.627,0,1.072,0.205,1.338,0.614c0.236,0.355,0.354,0.932,0.354,1.732V42.398z"/>
	<path d="M64.494,47.827c-0.083-0.009-0.223-0.014-0.421-0.014c-0.338,0-0.565,0.124-0.683,0.369c-0.073,0.172-0.11,0.45-0.11,0.832
		v0.996h1.175v0.792h-1.175v6.084h-1.077v-6.084h-1.009V50.01h1.009v-0.751c0-0.746,0.09-1.277,0.273-1.595
		c0.255-0.473,0.746-0.711,1.473-0.711c0.19,0,0.374,0.01,0.545,0.029V47.827z"/>
	<path d="M70.51,56.885h-1.078l-0.013-0.874c-0.42,0.656-0.998,0.983-1.734,0.983c-1.229,0-1.841-0.705-1.841-2.115v-4.87h1.078
		v4.393c0,0.564,0.045,0.963,0.137,1.201c0.153,0.391,0.472,0.586,0.955,0.586c0.9,0,1.35-0.669,1.35-2.006V50.01h1.091v5.362
		C70.456,55.908,70.474,56.413,70.51,56.885z"/>
	<path d="M69.747,48.427H68.71v-1.31h1.036V48.427z M67.604,48.427h-1.01v-1.31h1.01V48.427z"/>
	<path d="M75.354,50.91c-0.109-0.018-0.188-0.028-0.232-0.028c-0.519,0-0.908,0.159-1.166,0.478
		c-0.26,0.318-0.389,0.741-0.389,1.269v4.256h-1.092v-5.621c0-0.463-0.013-0.882-0.042-1.255h1.065v0.9
		c0.373-0.691,0.955-1.037,1.746-1.037C75.317,49.873,75.354,50.219,75.354,50.91z"/>
	<path d="M90.072,47.021l-2.264,9.864h-1.393l-1.731-8.649l-1.829,8.649h-1.393l-2.18-9.864h1.225l1.693,8.623l1.854-8.623h1.394
		l1.718,8.623l1.799-8.623H90.072z"/>
	<path d="M92.256,48.332h-1.188v-1.173h1.188V48.332z M92.199,56.885h-1.076V50.01h1.076V56.885z"/>
	<path d="M97.098,50.91c-0.107-0.018-0.188-0.028-0.23-0.028c-0.518,0-0.91,0.159-1.168,0.478c-0.258,0.318-0.387,0.741-0.387,1.269
		v4.256h-1.092v-5.621c0-0.463-0.016-0.882-0.041-1.255h1.064v0.9c0.373-0.691,0.955-1.037,1.746-1.037
		C97.063,49.873,97.098,50.219,97.098,50.91z"/>
	<path d="M101.055,56.885c-0.334,0.037-0.6,0.055-0.789,0.055c-0.621,0-1.043-0.132-1.268-0.396
		c-0.193-0.236-0.289-0.668-0.289-1.295v-4.447h-1.023V50.01h1.023v-1.269l1.076-0.478v1.747h1.23v0.792h-1.23v4.325
		c0,0.382,0.057,0.638,0.166,0.77c0.107,0.133,0.314,0.198,0.613,0.198c0.055,0,0.217-0.019,0.49-0.056V56.885z"/>
	<path d="M106.211,55.003c0,1.337-0.719,2.006-2.154,2.006c-1.41,0-2.102-0.742-2.072-2.224h1.076c0,0.136,0.006,0.264,0.014,0.382
		c0.063,0.719,0.4,1.078,1.01,1.078c0.691,0,1.037-0.355,1.037-1.064c0-0.382-0.109-0.682-0.328-0.9
		c-0.135-0.146-0.441-0.346-0.912-0.6c-0.648-0.346-1.059-0.6-1.229-0.765c-0.346-0.317-0.52-0.741-0.52-1.268
		c0-0.592,0.195-1.041,0.588-1.351c0.361-0.291,0.85-0.436,1.457-0.436c0.711,0,1.217,0.166,1.516,0.498
		c0.301,0.332,0.459,0.844,0.479,1.535h-1.078c0-0.854-0.324-1.283-0.969-1.283c-0.283,0-0.506,0.087-0.67,0.259
		c-0.162,0.173-0.244,0.401-0.244,0.682c0,0.31,0.131,0.573,0.395,0.792c0.137,0.127,0.459,0.328,0.969,0.601
		c0.555,0.3,0.938,0.554,1.146,0.763C106.049,54.052,106.211,54.485,106.211,55.003z"/>
	<path d="M112.064,54.744c0,1.518-0.715,2.277-2.143,2.277c-0.982,0-1.639-0.318-1.979-0.955c-0.254-0.481-0.381-1.319-0.381-2.51
		c0-1.191,0.113-2.037,0.342-2.538c0.346-0.773,1.025-1.159,2.043-1.159c0.785,0,1.338,0.182,1.666,0.545
		c0.303,0.346,0.451,0.905,0.451,1.678h-1.063c0-0.964-0.357-1.446-1.064-1.446c-0.566,0-0.934,0.304-1.105,0.913
		c-0.1,0.355-0.152,0.988-0.152,1.896c0,1.038,0.078,1.751,0.234,2.142c0.172,0.437,0.5,0.655,0.98,0.655
		c0.43,0,0.729-0.149,0.9-0.45c0.129-0.229,0.195-0.578,0.207-1.05H112.064z"/>
	<path d="M118.189,56.885h-1.078v-4.393c0-0.583-0.039-0.987-0.121-1.215c-0.156-0.399-0.471-0.6-0.941-0.6
		c-0.93,0-1.393,0.678-1.393,2.032v4.175h-1.078v-9.864h1.078v3.78c0.445-0.628,1.023-0.941,1.732-0.941
		c1.199,0,1.801,0.718,1.801,2.155V56.885z"/>
	<path d="M124.479,56.885h-1.049l-0.016-0.899c-0.463,0.671-1.076,1.009-1.84,1.009c-0.582,0-1.031-0.191-1.35-0.573
		c-0.285-0.363-0.422-0.846-0.422-1.446c0-0.974,0.371-1.629,1.115-1.964c0.492-0.227,1.301-0.346,2.43-0.354v-0.301
		c0-0.563-0.045-0.955-0.137-1.173c-0.146-0.364-0.455-0.545-0.928-0.545c-0.328,0-0.602,0.091-0.82,0.272
		c-0.217,0.182-0.324,0.437-0.324,0.765v0.067h-1.08v-0.067c0-0.628,0.227-1.097,0.684-1.406c0.391-0.273,0.918-0.409,1.582-0.409
		c0.791,0,1.342,0.19,1.65,0.573c0.291,0.345,0.436,0.918,0.436,1.719v2.537C124.41,55.517,124.436,56.249,124.479,56.885z
		 M123.348,54.225v-0.818h-0.273c-1.436,0-2.156,0.491-2.156,1.473c0,0.883,0.338,1.324,1.01,1.324c0.51,0,0.887-0.218,1.133-0.655
		C123.25,55.203,123.348,54.762,123.348,54.225z"/>
	<path d="M129.063,47.827c-0.082-0.009-0.223-0.014-0.422-0.014c-0.336,0-0.563,0.124-0.682,0.369
		c-0.072,0.172-0.111,0.45-0.111,0.832v0.996h1.176v0.792h-1.176v6.084h-1.078v-6.084h-1.008V50.01h1.008v-0.751
		c0-0.746,0.094-1.277,0.275-1.595c0.254-0.473,0.746-0.711,1.473-0.711c0.191,0,0.373,0.01,0.545,0.029V47.827z"/>
	<path d="M133.072,56.885c-0.336,0.037-0.6,0.055-0.791,0.055c-0.617,0-1.039-0.132-1.268-0.396
		c-0.191-0.236-0.287-0.668-0.287-1.295v-4.447h-1.021V50.01h1.021v-1.269l1.078-0.478v1.747h1.229v0.792h-1.229v4.325
		c0,0.382,0.055,0.638,0.164,0.77c0.109,0.133,0.313,0.198,0.615,0.198c0.055,0,0.217-0.019,0.488-0.056V56.885z"/>
	<path d="M66.513,71.373h-1.078L65.422,70.5c-0.419,0.657-0.997,0.983-1.733,0.983c-1.228,0-1.842-0.705-1.842-2.116v-4.87h1.079
		v4.393c0,0.563,0.045,0.964,0.135,1.201c0.154,0.39,0.472,0.586,0.955,0.586c0.9,0,1.35-0.669,1.35-2.006v-4.174h1.091v5.362
		C66.458,70.396,66.477,70.9,66.513,71.373z"/>
	<path d="M73.103,71.373h-1.077v-4.392c0-0.593-0.042-0.996-0.125-1.215c-0.153-0.4-0.467-0.601-0.939-0.601
		c-0.465,0-0.825,0.229-1.08,0.683c-0.208,0.391-0.314,0.854-0.314,1.392v4.133H68.49v-5.375c0-0.61-0.017-1.11-0.054-1.501H69.5
		v0.942c0.382-0.729,0.979-1.092,1.787-1.092c1.21,0,1.816,0.714,1.816,2.143V71.373z"/>
	<path d="M79.665,71.373h-1.052L78.6,70.583c-0.391,0.599-0.927,0.9-1.608,0.9c-0.883,0-1.488-0.396-1.815-1.187
		c-0.208-0.528-0.314-1.347-0.314-2.457c0-1.045,0.123-1.836,0.368-2.372c0.328-0.746,0.905-1.119,1.733-1.119
		c0.69,0,1.209,0.268,1.555,0.806v-3.644h1.091v8.567C79.61,70.324,79.628,70.754,79.665,71.373z M78.56,68.004
		c0-0.938-0.069-1.605-0.206-2.006c-0.19-0.573-0.559-0.859-1.104-0.859c-0.536,0-0.899,0.3-1.09,0.899
		c-0.127,0.393-0.192,1.001-0.192,1.828c0,0.899,0.072,1.559,0.217,1.978c0.191,0.564,0.534,0.846,1.024,0.846
		c0.583,0,0.969-0.286,1.159-0.858C78.496,69.458,78.56,68.849,78.56,68.004z"/>
	<path d="M89.746,71.373h-4.639v-9.864h4.543v0.942h-3.383v3.383h3.203v0.914h-3.203v3.685h3.479V71.373z"/>
	<path d="M95.967,71.373h-1.08v-4.392c0-0.593-0.037-0.996-0.121-1.215c-0.154-0.4-0.467-0.601-0.939-0.601
		c-0.465,0-0.824,0.229-1.08,0.683c-0.209,0.391-0.313,0.854-0.313,1.392v4.133h-1.076v-5.375c0-0.61-0.02-1.11-0.057-1.501h1.064
		v0.942c0.381-0.729,0.979-1.092,1.787-1.092c1.211,0,1.814,0.714,1.814,2.143V71.373z"/>
	<path d="M102.434,68.085H98.83v0.465c0,0.699,0.064,1.204,0.193,1.513c0.182,0.446,0.535,0.669,1.063,0.669
		c0.791,0,1.207-0.506,1.242-1.515h1.064c-0.064,1.529-0.832,2.292-2.307,2.292c-0.955,0-1.607-0.322-1.965-0.969
		c-0.264-0.481-0.395-1.261-0.395-2.332c0-1.22,0.115-2.093,0.34-2.619c0.355-0.829,1.059-1.242,2.102-1.242
		c0.984,0,1.637,0.363,1.965,1.092c0.201,0.454,0.301,1.232,0.301,2.333V68.085z M101.342,67.349c0-0.665-0.047-1.134-0.135-1.405
		c-0.166-0.546-0.516-0.819-1.053-0.819c-0.746,0-1.168,0.445-1.268,1.337c-0.037,0.31-0.057,0.604-0.057,0.888H101.342z"/>
	<path d="M107.02,65.398c-0.111-0.019-0.189-0.028-0.234-0.028c-0.52,0-0.908,0.159-1.164,0.479
		c-0.262,0.318-0.391,0.74-0.391,1.269v4.256h-1.092v-5.622c0-0.463-0.014-0.88-0.043-1.254h1.066v0.901
		c0.373-0.692,0.955-1.038,1.746-1.038C106.98,64.36,107.02,64.706,107.02,65.398z"/>
	<path d="M112.691,64.497c0,0.1-0.008,0.28-0.018,0.539c-0.016,0.259-0.023,0.461-0.023,0.607v6.015c0,0.84-0.195,1.447-0.586,1.83
		s-1.014,0.572-1.867,0.572c-1.42,0-2.139-0.664-2.158-1.992h1.146c0,0.838,0.355,1.256,1.064,1.256c0.555,0,0.922-0.199,1.104-0.6
		c0.127-0.266,0.193-0.701,0.193-1.311v-0.926c-0.385,0.536-0.914,0.805-1.6,0.805c-0.852,0-1.438-0.361-1.758-1.081
		c-0.209-0.472-0.313-1.208-0.313-2.208c0-1.11,0.111-1.938,0.342-2.484c0.326-0.781,0.906-1.173,1.744-1.173
		c0.764,0,1.316,0.319,1.65,0.956v-0.806H112.691z M111.574,67.717c0-0.772-0.064-1.346-0.191-1.719
		c-0.199-0.565-0.574-0.846-1.121-0.846c-0.563,0-0.936,0.317-1.117,0.955c-0.109,0.382-0.162,1.013-0.162,1.896
		c0,0.79,0.053,1.354,0.162,1.69c0.174,0.564,0.523,0.846,1.053,0.846c0.617,0,1.025-0.34,1.227-1.022
		C111.523,69.163,111.574,68.562,111.574,67.717z"/>
	<path d="M115.801,62.819h-1.186v-1.173h1.186V62.819z M115.746,71.373h-1.076v-6.876h1.076V71.373z"/>
	<path d="M122.215,68.085h-3.602v0.465c0,0.699,0.063,1.204,0.189,1.513c0.182,0.446,0.539,0.669,1.066,0.669
		c0.791,0,1.205-0.506,1.24-1.515h1.064c-0.064,1.529-0.832,2.292-2.305,2.292c-0.955,0-1.611-0.322-1.967-0.969
		c-0.262-0.481-0.393-1.261-0.393-2.332c0-1.22,0.113-2.093,0.34-2.619c0.355-0.829,1.057-1.242,2.1-1.242
		c0.982,0,1.639,0.363,1.965,1.092c0.201,0.454,0.301,1.232,0.301,2.333V68.085z M121.123,67.349c0-0.665-0.045-1.134-0.135-1.405
		c-0.166-0.546-0.516-0.819-1.053-0.819c-0.746,0-1.168,0.445-1.268,1.337c-0.037,0.31-0.055,0.604-0.055,0.888H121.123z"/>
</g>
<g id="texte_deutsch">
</g>
</svg>
