<?xml version="1.0" encoding="UTF-8"?>
<svg width="41px" height="37px" viewBox="0 0 41 37" version="1.1" xmlns="http://www.w3.org/2000/svg" xmlns:xlink="http://www.w3.org/1999/xlink">
    <!-- Generator: Sketch 43.2 (39069) - http://www.bohemiancoding.com/sketch -->
    <title>Group</title>
    <desc>Created with Sketch.</desc>
    <defs></defs>
    <g id="Landing-Page-old" stroke="none" stroke-width="1" fill="none" fill-rule="evenodd" stroke-linecap="round" stroke-linejoin="round">
        <g id="Landing-Page-v2" transform="translate(-1100.000000, -1039.000000)" stroke="#000000" stroke-width="2">
            <g id="Group" transform="translate(1101.000000, 1040.000000)">
                <polygon id="Stroke-35" points="16.6666667 35 0 35 0 1.66666667 25 1.66666667 25 26.6666667"></polygon>
                <polyline id="Stroke-36" points="16.6666667 35 16.6666667 26.6666667 25 26.6666667"></polyline>
                <polyline id="Stroke-37" points="5 9.16666667 7.5 11.6666667 11.6666667 6.66666667"></polyline>
                <polyline id="Stroke-38" points="5 18.3333333 7.5 20.8333333 11.6666667 15.8333333"></polyline>
                <path d="M13.3333333,10 L20,10" id="Stroke-39"></path>
                <path d="M13.3333333,20 L20,20" id="Stroke-40"></path>
                <polygon id="Stroke-41" points="33.3333333 30 28.3333333 30 28.3333333 1.66666667 33.3333333 1.66666667"></polygon>
                <polyline id="Stroke-42" points="28.3333333 30 30.8333333 35 33.3333333 30"></polyline>
                <path d="M28.3333333,10 L33.3333333,10" id="Stroke-43"></path>
                <polyline id="Stroke-44" points="33.3333333 3.33333333 38.3333333 3.33333333 36.6666667 15 38.3333333 16.6666667"></polyline>
                <path d="M30,3.5 L30,0" id="Stroke-45"></path>
            </g>
        </g>
    </g>
</svg>