<?xml version="1.0" encoding="UTF-8"?>
<svg width="27px" height="37px" viewBox="0 0 27 37" version="1.1" xmlns="http://www.w3.org/2000/svg" xmlns:xlink="http://www.w3.org/1999/xlink">
    <!-- Generator: Sketch 43.2 (39069) - http://www.bohemiancoding.com/sketch -->
    <title>Group Copy</title>
    <desc>Created with Sketch.</desc>
    <defs></defs>
    <g id="Landing-Page-old" stroke="none" stroke-width="1" fill="none" fill-rule="evenodd" stroke-linejoin="round">
        <g id="Landing-Page-v2" transform="translate(-857.000000, -1804.000000)" stroke="#000000" stroke-width="2">
            <g id="Group-35" transform="translate(-1.000000, 1600.000000)">
                <g id="Group-Copy" transform="translate(859.000000, 205.000000)">
                    <polygon id="Stroke-586" stroke-linecap="round" points="20.8043478 26.6304348 20.8043478 30.4347826 17 30.4347826 12.4347826 35 7.86956522 30.4347826 4.06521739 30.4347826 4.06521739 26.6304348 0.260869565 22.826087 4.06521739 19.0217391 4.06521739 15.2173913 7.86956522 15.2173913 12.4347826 10.6521739 17 15.2173913 20.8043478 15.2173913 20.8043478 19.0217391 24.6086957 22.826087"></polygon>
                    <polyline id="Stroke-587" stroke-linecap="round" points="5.58695652 0 5.58695652 7.60869565 12.4347826 10.6521739 19.2826087 7.60869565 19.2826087 0"></polyline>
                    <path d="M2.54347826,0 L22.326087,0" id="Stroke-588" stroke-linecap="round"></path>
                    <path d="M10,0 L10,9.51086957" id="Stroke-589" stroke-linecap="round"></path>
                    <path d="M14,0 L14,9.51086957" id="Stroke-590" stroke-linecap="round"></path>
                    <polygon id="Stroke-591" points="12.4347826 27.3913043 8.63043478 25.1086957 8.63043478 20.5434783 12.4347826 18.2608696 16.2391304 20.5434783 16.2391304 25.1086957"></polygon>
                </g>
            </g>
        </g>
    </g>
</svg>